<?xml version="1.0" standalone="no"?>
<!DOCTYPE svg PUBLIC "-//W3C//DTD SVG 1.1//EN" "http://www.w3.org/Graphics/SVG/1.1/DTD/svg11.dtd" >
<svg xmlns="http://www.w3.org/2000/svg" xmlns:xlink="http://www.w3.org/1999/xlink" version="1.1">
<metadata>
Created by FontForge 20191125 at Thu Sep  8 11:50:42 2016
 By convertio
Copyright \(c\) 2016 by Ilya Zherikov. Some rights reserved.
</metadata>
<defs>
<font id="OksFree" horiz-adv-x="703" >
  <font-face 
    font-family="Oks Free"
    font-weight="400"
    font-stretch="normal"
    units-per-em="1000"
    panose-1="2 0 5 6 3 0 0 2 0 4"
    ascent="900"
    descent="-100"
    x-height="700"
    cap-height="700"
    bbox="-53 -153 1375 870"
    underline-thickness="68"
    underline-position="-85"
    stemh="72"
    stemv="76"
    unicode-range="U+000D-2265"
  />
<missing-glyph horiz-adv-x="764" 
d="M38 0v700h688v-700h-688zM157 633l225 -234l225 234l-106 -5h-238zM330 349l-220 227l4 -106v-242l-4 -105zM607 67l-225 234l-225 -234l106 5h238zM434 351l220 -227l-4 106v242l4 105z" />
    <glyph glyph-name="uni0457_uni0457" unicode="&#x457;&#x457;" horiz-adv-x="366" 
d="M60 0v700h76v-700h-76zM230 0v700h76v-700h-76zM-53 812c0 32 24 56 54 56c32 0 56 -24 56 -56c0 -30 -24 -54 -56 -54c-30 0 -54 24 -54 54zM129 812c0 32 24 56 54 56c32 0 56 -24 56 -56c0 -30 -24 -54 -56 -54c-30 0 -54 24 -54 54zM311 812c0 32 24 56 54 56
c32 0 56 -24 56 -56c0 -30 -24 -54 -56 -54c-30 0 -54 24 -54 54z" />
    <glyph glyph-name="a_v" unicode="av" horiz-adv-x="434" 
d="M98 700h122l17 -146l43 -467l43 468l17 145h74l-75 -700h-118l-9 74h-112l-8 -74h-74zM204 146l-48 470l-47 -470h95z" />
    <glyph glyph-name="a_w" unicode="aw" horiz-adv-x="670" 
d="M98 700h120l17 -146l47 -467l39 468l17 145h118l17 -146l39 -467l47 468l17 145h74l-80 -700h-118l-10 94l-45 516l-45 -517l-10 -93h-121l-9 74h-112l-8 -74h-74zM204 146l-48 470l-47 -470h95z" />
    <glyph glyph-name="o_o" unicode="oo" horiz-adv-x="1157" 
d="M24 350c0 201 165 364 368 364c68 0 131 -19 186 -51c55 32 119 51 187 51c203 0 368 -163 368 -364s-165 -364 -368 -364c-68 0 -132 18 -187 50c-55 -32 -118 -50 -186 -50c-203 0 -368 163 -368 364zM397 350c0 105 48 202 120 269c-40 18 -81 26 -121 26
c-157 0 -296 -127 -296 -295c0 -167 142 -295 296 -295c40 0 81 8 120 27c-72 66 -119 163 -119 268zM473 350c0 -90 32 -173 105 -233c73 60 105 143 105 233s-32 173 -105 233c-73 -60 -105 -143 -105 -233zM760 350c0 -105 -47 -202 -119 -268c39 -19 80 -27 120 -27
c154 0 296 128 296 295c0 168 -139 295 -296 295c-40 0 -81 -8 -121 -26c72 -67 120 -164 120 -269z" />
    <glyph glyph-name="o_c" unicode="oc" horiz-adv-x="1076" 
d="M397 350c0 105 48 202 120 269c-40 18 -81 26 -121 26c-157 0 -296 -127 -296 -295c0 -167 142 -295 296 -295c40 0 81 8 120 27c-72 66 -119 163 -119 268zM473 350c0 -90 32 -173 105 -233c73 60 105 143 105 233s-32 173 -105 233c-73 -60 -105 -143 -105 -233z
M761 55c103 0 182 44 240 123l60 -44c-67 -90 -174 -148 -296 -148c-68 0 -132 18 -187 50c-55 -32 -118 -50 -186 -50c-203 0 -368 163 -368 364s165 364 368 364c68 0 131 -19 186 -51c55 32 119 51 187 51c118 0 223 -56 291 -142l-58 -45c-53 70 -141 118 -237 118
c-40 0 -81 -8 -121 -26c72 -67 120 -164 120 -269s-47 -202 -119 -268c39 -19 80 -27 120 -27z" />
    <glyph glyph-name="o_g" unicode="og" horiz-adv-x="1118" 
d="M1103 275c-6 -196 -178 -289 -326 -289c-68 0 -144 18 -199 50c-55 -32 -118 -50 -186 -50c-203 0 -368 163 -368 364s165 364 368 364c68 0 131 -19 186 -51c55 32 119 51 187 51c118 0 223 -56 291 -142l-58 -45c-53 70 -141 118 -237 118c-40 0 -81 -8 -121 -26
c72 -67 120 -164 120 -269s-47 -202 -119 -268c39 -19 96 -27 136 -27c135 0 215 76 238 148h-141v72h229zM397 350c0 105 48 202 120 269c-40 18 -81 26 -121 26c-157 0 -296 -127 -296 -295c0 -167 142 -295 296 -295c40 0 81 8 120 27c-72 66 -119 163 -119 268zM473 350
c0 -90 32 -173 105 -233c73 60 105 143 105 233s-32 173 -105 233c-73 -60 -105 -143 -105 -233z" />
    <glyph glyph-name="u_r" unicode="ur" horiz-adv-x="538" 
d="M214 109v591h46c140 0 255 -113 255 -252c0 -100 -60 -185 -146 -226l145 -222h-88l-136 209v-93c0 -72 -57 -130 -127 -130s-127 58 -127 130v584h76v-591c0 -26 23 -51 51 -51s51 25 51 51zM439 448c0 89 -64 163 -149 178v-358c85 15 149 91 149 180z" />
    <glyph glyph-name="v_a" unicode="va" horiz-adv-x="436" 
d="M111 554l43 -467l43 468l17 145h124l80 -700h-74l-9 74h-112l-8 -74h-120l-75 700h74zM327 146l-48 470l-47 -470h95z" />
    <glyph glyph-name="w_a" unicode="wa" horiz-adv-x="667" 
d="M452 700h117l80 -700h-74l-9 74h-112l-8 -74h-118l-10 94l-45 516l-45 -517l-10 -93h-118l-80 700h74l17 -146l47 -467l39 468l17 145h118l17 -146l39 -467l47 468zM558 146l-48 470l-47 -470h95z" />
    <glyph glyph-name="uni0418_uni0419" unicode="&#x418;&#x419;" horiz-adv-x="608" 
d="M38 700h76v-83l-10 -524l99 522l17 85h124v-83l-10 -524l99 522l17 85h120v-700h-76v91l10 520l-97 -517l-19 -94h-124v91l10 520l-97 -517l-19 -94h-120v700zM321 839h64v-4c0 -16 16 -30 34 -30c19 0 35 14 35 30v4h64v-6c0 -51 -45 -90 -99 -90c-53 0 -98 39 -98 90v6
z" />
    <glyph glyph-name="uni0418_uni041D" unicode="&#x418;&#x41d;" horiz-adv-x="564" 
d="M340 700v-425h110v425h76v-700h-76v203h-110v-203h-76v91l10 520l-97 -517l-19 -94h-120v700h76v-83l-10 -524l99 522l17 85h120z" />
    <glyph glyph-name="uni041D_uni041F" unicode="&#x41d;&#x41f;" horiz-adv-x="520" 
d="M406 0v628h-106v-628h-76v203h-110v-203h-76v700h76v-425h110v425h258v-700h-76z" />
    <glyph glyph-name="uni0418_uni041A" unicode="&#x418;&#x41a;" horiz-adv-x="560" 
d="M38 700h76v-83l-10 -524l99 522l17 85h120v-84l-6 -247l140 331h78l-151 -356l151 -344h-79l-138 317l5 -224v-93h-76v91l10 520l-97 -517l-19 -94h-120v700z" />
    <glyph glyph-name="uni0418_uni041F" unicode="&#x418;&#x41f;" horiz-adv-x="560" 
d="M38 700h76v-83l-10 -524l99 522l17 85h302v-700h-76v628h-106v-628h-76v91l10 520l-97 -517l-19 -94h-120v700z" />
    <glyph glyph-name="uni041D_uni0418" unicode="&#x41d;&#x418;" horiz-adv-x="564" 
d="M526 0h-76v91l10 520l-97 -517l-19 -94h-120v203h-110v-203h-76v700h76v-425h110v425h76v-83l-10 -524l99 522l17 85h120v-700z" />
    <glyph glyph-name="u_t" unicode="ut" horiz-adv-x="596" 
d="M214 109v591h364v-72h-112v-628h-76v628h-100v-512c0 -72 -57 -130 -127 -130s-127 58 -127 130v584h76v-591c0 -26 23 -51 51 -51s51 25 51 51z" />
    <glyph glyph-name="u_k" unicode="uk" horiz-adv-x="510" 
d="M290 616l-6 -247l140 331h78l-151 -356l151 -344h-79l-138 316c1 -58 5 -173 5 -200c0 -72 -57 -130 -127 -130s-127 58 -127 130v584h76v-591c0 -26 23 -51 51 -51s51 25 51 51v591h76v-84z" />
    <glyph glyph-name="n_k" unicode="nk" horiz-adv-x="562" 
d="M201 94l-97 517l10 -520v-91h-76v700h120l17 -85l98 -522l-9 524v83h78v-84l-6 -243l140 327h78l-151 -356l151 -344h-79l-138 317l5 -224v-93h-122z" />
    <glyph glyph-name="l_i" unicode="li" horiz-adv-x="306" 
d="M38 0v700h76v-628h154v-72h-230zM192 144v556h76v-556h-76z" />
    <glyph glyph-name="n_n" unicode="nn" horiz-adv-x="604" 
d="M201 94l-97 517l10 -520v-91h-76v700h120l17 -85l98 -522l-9 524v83h120l17 -85l98 -522l-9 524v83h76v-700h-120l-19 94l-97 517l10 -520v-91h-120z" />
    <glyph glyph-name="u_n" unicode="un" horiz-adv-x="554" 
d="M377 94l-97 515c3 -151 10 -440 10 -493c0 -72 -57 -130 -127 -130s-127 58 -127 130v584h76v-591c0 -26 23 -51 51 -51s51 25 51 51v591h120l17 -85l98 -522l-9 524v83h76v-700h-120z" />
    <glyph glyph-name="c_o" unicode="co" 
d="M205 349c0 103 84 186 187 186c104 0 188 -83 188 -186c0 -102 -84 -185 -188 -185c-103 0 -187 83 -187 185zM276 349c0 -65 50 -116 116 -116s117 51 117 116s-51 117 -117 117s-116 -52 -116 -117zM628 178l60 -44c-67 -90 -174 -148 -296 -148
c-203 0 -368 163 -368 364s165 364 368 364c118 0 223 -56 291 -142l-58 -45c-53 70 -137 115 -233 115c-163 0 -292 -131 -292 -292s129 -292 292 -292c98 0 183 47 236 120z" />
    <glyph glyph-name="uni0421_uni041E" unicode="&#x421;&#x41e;" 
d="M205 349c0 103 84 186 187 186c104 0 188 -83 188 -186c0 -102 -84 -185 -188 -185c-103 0 -187 83 -187 185zM276 349c0 -65 50 -116 116 -116s117 51 117 116s-51 117 -117 117s-116 -52 -116 -117zM628 178l60 -44c-67 -90 -174 -148 -296 -148
c-203 0 -368 163 -368 364s165 364 368 364c118 0 223 -56 291 -142l-58 -45c-53 70 -137 115 -233 115c-163 0 -292 -131 -292 -292s129 -292 292 -292c98 0 183 47 236 120z" />
    <glyph glyph-name="uni0418_uni0418" unicode="&#x418;&#x418;" horiz-adv-x="604" 
d="M38 700h76v-83l-10 -524l99 522l17 85h120v-83l-10 -524l99 522l17 85h120v-700h-76v91l10 520l-97 -517l-19 -94h-120v91l10 520l-97 -517l-19 -94h-120v700z" />
    <glyph glyph-name="uni041F_uni041D" unicode="&#x41f;&#x41d;" horiz-adv-x="520" 
d="M406 0v203h-110v-203h-76v628h-106v-628h-76v700h258v-425h110v425h76v-700h-76z" />
    <glyph glyph-name="uni041F_uni041A" unicode="&#x41f;&#x41a;" horiz-adv-x="516" 
d="M296 0h-76v628h-106v-628h-76v700h258v-84l-6 -247l140 331h78l-151 -356l151 -344h-79l-138 317l5 -224v-93z" />
    <glyph glyph-name="uni0428_uni0412" unicode="&#x428;&#x412;" horiz-adv-x="683" 
d="M38 0v700h76v-628h94v628h76v-628h94v628h33c103 0 176 -87 176 -175c0 -42 -14 -80 -42 -107c76 -38 125 -111 125 -195c0 -123 -102 -223 -226 -223h-406zM594 223c0 77 -63 145 -140 151v-303c77 6 140 74 140 152zM511 525c0 41 -23 77 -57 95v-190
c34 17 57 54 57 95z" />
    <glyph glyph-name="uni0428_uni041A" unicode="&#x428;&#x41a;" horiz-adv-x="674" 
d="M454 0h-416v700h76v-628h94v628h76v-628h94v628h76v-84l-6 -247l140 331h78l-151 -356l151 -344h-79l-138 317l5 -224v-93z" />
    <glyph glyph-name="uni0428_uni041D" unicode="&#x428;&#x41d;" horiz-adv-x="678" 
d="M454 0h-416v700h76v-628h94v628h76v-628h94v628h76v-425h110v425h76v-700h-76v203h-110v-203z" />
    <glyph glyph-name="uni0438_uni0439" unicode="&#x438;&#x439;" horiz-adv-x="608" 
d="M38 700h76v-83l-10 -524l99 522l17 85h124v-83l-10 -524l99 522l17 85h120v-700h-76v91l10 520l-97 -517l-19 -94h-124v91l10 520l-97 -517l-19 -94h-120v700zM321 839h64v-4c0 -16 16 -30 34 -30c19 0 35 14 35 30v4h64v-6c0 -51 -45 -90 -99 -90c-53 0 -98 39 -98 90v6
z" />
    <glyph glyph-name="uni0438_uni043D" unicode="&#x438;&#x43d;" horiz-adv-x="564" 
d="M340 700v-425h110v425h76v-700h-76v203h-110v-203h-76v91l10 520l-97 -517l-19 -94h-120v700h76v-83l-10 -524l99 522l17 85h120z" />
    <glyph glyph-name="uni043D_uni043F" unicode="&#x43d;&#x43f;" horiz-adv-x="520" 
d="M406 0v628h-106v-628h-76v203h-110v-203h-76v700h76v-425h110v425h258v-700h-76z" />
    <glyph glyph-name="uni0438_uni043A" unicode="&#x438;&#x43a;" horiz-adv-x="560" 
d="M38 700h76v-83l-10 -524l99 522l17 85h120v-84l-6 -247l140 331h78l-151 -356l151 -344h-79l-138 317l5 -224v-93h-76v91l10 520l-97 -517l-19 -94h-120v700z" />
    <glyph glyph-name="uni0438_uni043F" unicode="&#x438;&#x43f;" horiz-adv-x="560" 
d="M38 700h76v-83l-10 -524l99 522l17 85h302v-700h-76v628h-106v-628h-76v91l10 520l-97 -517l-19 -94h-120v700z" />
    <glyph glyph-name="uni043D_uni0438" unicode="&#x43d;&#x438;" horiz-adv-x="564" 
d="M526 0h-76v91l10 520l-97 -517l-19 -94h-120v203h-110v-203h-76v700h76v-425h110v425h76v-83l-10 -524l99 522l17 85h120v-700z" />
    <glyph glyph-name="uni0441_uni043E" unicode="&#x441;&#x43e;" 
d="M205 349c0 103 84 186 187 186c104 0 188 -83 188 -186c0 -102 -84 -185 -188 -185c-103 0 -187 83 -187 185zM276 349c0 -65 50 -116 116 -116s117 51 117 116s-51 117 -117 117s-116 -52 -116 -117zM628 178l60 -44c-67 -90 -174 -148 -296 -148
c-203 0 -368 163 -368 364s165 364 368 364c118 0 223 -56 291 -142l-58 -45c-53 70 -137 115 -233 115c-163 0 -292 -131 -292 -292s129 -292 292 -292c98 0 183 47 236 120z" />
    <glyph glyph-name="uni0438_uni0438" unicode="&#x438;&#x438;" horiz-adv-x="604" 
d="M38 700h76v-83l-10 -524l99 522l17 85h120v-83l-10 -524l99 522l17 85h120v-700h-76v91l10 520l-97 -517l-19 -94h-120v91l10 520l-97 -517l-19 -94h-120v700z" />
    <glyph glyph-name="uni043F_uni043D" unicode="&#x43f;&#x43d;" horiz-adv-x="520" 
d="M406 0v203h-110v-203h-76v628h-106v-628h-76v700h258v-425h110v425h76v-700h-76z" />
    <glyph glyph-name="uni043F_uni043A" unicode="&#x43f;&#x43a;" horiz-adv-x="516" 
d="M296 0h-76v628h-106v-628h-76v700h258v-84l-6 -247l140 331h78l-151 -356l151 -344h-79l-138 317l5 -224v-93z" />
    <glyph glyph-name="uni0448_uni0432" unicode="&#x448;&#x432;" horiz-adv-x="683" 
d="M38 0v700h76v-628h94v628h76v-628h94v628h33c103 0 176 -87 176 -175c0 -42 -14 -80 -42 -107c76 -38 125 -111 125 -195c0 -123 -102 -223 -226 -223h-406zM594 223c0 77 -63 145 -140 151v-303c77 6 140 74 140 152zM511 525c0 41 -23 77 -57 95v-190
c34 17 57 54 57 95z" />
    <glyph glyph-name="uni0448_uni043A" unicode="&#x448;&#x43a;" horiz-adv-x="674" 
d="M454 0h-416v700h76v-628h94v628h76v-628h94v628h76v-84l-6 -247l140 331h78l-151 -356l151 -344h-79l-138 317l5 -224v-93z" />
    <glyph glyph-name="uni0448_uni043D" unicode="&#x448;&#x43d;" horiz-adv-x="678" 
d="M454 0h-416v700h76v-628h94v628h76v-628h94v628h76v-425h110v425h76v-700h-76v203h-110v-203z" />
    <glyph glyph-name="uni0407_uni0407" unicode="&#x407;&#x407;" horiz-adv-x="366" 
d="M60 0v700h76v-700h-76zM230 0v700h76v-700h-76zM-53 812c0 32 24 56 54 56c32 0 56 -24 56 -56c0 -30 -24 -54 -56 -54c-30 0 -54 24 -54 54zM129 812c0 32 24 56 54 56c32 0 56 -24 56 -56c0 -30 -24 -54 -56 -54c-30 0 -54 24 -54 54zM311 812c0 32 24 56 54 56
c32 0 56 -24 56 -56c0 -30 -24 -54 -56 -54c-30 0 -54 24 -54 54z" />
    <glyph glyph-name="A_V" unicode="AV" horiz-adv-x="434" 
d="M98 700h122l17 -146l43 -467l43 468l17 145h74l-75 -700h-118l-9 74h-112l-8 -74h-74zM204 146l-48 470l-47 -470h95z" />
    <glyph glyph-name="A_W" unicode="AW" horiz-adv-x="670" 
d="M98 700h120l17 -146l47 -467l39 468l17 145h118l17 -146l39 -467l47 468l17 145h74l-80 -700h-118l-10 94l-45 516l-45 -517l-10 -93h-121l-9 74h-112l-8 -74h-74zM204 146l-48 470l-47 -470h95z" />
    <glyph glyph-name="O_O" unicode="OO" horiz-adv-x="1157" 
d="M24 350c0 201 165 364 368 364c68 0 131 -19 186 -51c55 32 119 51 187 51c203 0 368 -163 368 -364s-165 -364 -368 -364c-68 0 -132 18 -187 50c-55 -32 -118 -50 -186 -50c-203 0 -368 163 -368 364zM397 350c0 105 48 202 120 269c-40 18 -81 26 -121 26
c-157 0 -296 -127 -296 -295c0 -167 142 -295 296 -295c40 0 81 8 120 27c-72 66 -119 163 -119 268zM473 350c0 -90 32 -173 105 -233c73 60 105 143 105 233s-32 173 -105 233c-73 -60 -105 -143 -105 -233zM760 350c0 -105 -47 -202 -119 -268c39 -19 80 -27 120 -27
c154 0 296 128 296 295c0 168 -139 295 -296 295c-40 0 -81 -8 -121 -26c72 -67 120 -164 120 -269z" />
    <glyph glyph-name="O_C" unicode="OC" horiz-adv-x="1076" 
d="M397 350c0 105 48 202 120 269c-40 18 -81 26 -121 26c-157 0 -296 -127 -296 -295c0 -167 142 -295 296 -295c40 0 81 8 120 27c-72 66 -119 163 -119 268zM473 350c0 -90 32 -173 105 -233c73 60 105 143 105 233s-32 173 -105 233c-73 -60 -105 -143 -105 -233z
M761 55c103 0 182 44 240 123l60 -44c-67 -90 -174 -148 -296 -148c-68 0 -132 18 -187 50c-55 -32 -118 -50 -186 -50c-203 0 -368 163 -368 364s165 364 368 364c68 0 131 -19 186 -51c55 32 119 51 187 51c118 0 223 -56 291 -142l-58 -45c-53 70 -141 118 -237 118
c-40 0 -81 -8 -121 -26c72 -67 120 -164 120 -269s-47 -202 -119 -268c39 -19 80 -27 120 -27z" />
    <glyph glyph-name="O_G" unicode="OG" horiz-adv-x="1118" 
d="M1103 275c-6 -196 -178 -289 -326 -289c-68 0 -144 18 -199 50c-55 -32 -118 -50 -186 -50c-203 0 -368 163 -368 364s165 364 368 364c68 0 131 -19 186 -51c55 32 119 51 187 51c118 0 223 -56 291 -142l-58 -45c-53 70 -141 118 -237 118c-40 0 -81 -8 -121 -26
c72 -67 120 -164 120 -269s-47 -202 -119 -268c39 -19 96 -27 136 -27c135 0 215 76 238 148h-141v72h229zM397 350c0 105 48 202 120 269c-40 18 -81 26 -121 26c-157 0 -296 -127 -296 -295c0 -167 142 -295 296 -295c40 0 81 8 120 27c-72 66 -119 163 -119 268zM473 350
c0 -90 32 -173 105 -233c73 60 105 143 105 233s-32 173 -105 233c-73 -60 -105 -143 -105 -233z" />
    <glyph glyph-name="U_R" unicode="UR" horiz-adv-x="538" 
d="M214 109v591h46c140 0 255 -113 255 -252c0 -100 -60 -185 -146 -226l145 -222h-88l-136 209v-93c0 -72 -57 -130 -127 -130s-127 58 -127 130v584h76v-591c0 -26 23 -51 51 -51s51 25 51 51zM439 448c0 89 -64 163 -149 178v-358c85 15 149 91 149 180z" />
    <glyph glyph-name="V_A" unicode="VA" horiz-adv-x="436" 
d="M111 554l43 -467l43 468l17 145h124l80 -700h-74l-9 74h-112l-8 -74h-120l-75 700h74zM327 146l-48 470l-47 -470h95z" />
    <glyph glyph-name="W_A" unicode="WA" horiz-adv-x="667" 
d="M452 700h117l80 -700h-74l-9 74h-112l-8 -74h-118l-10 94l-45 516l-45 -517l-10 -93h-118l-80 700h74l17 -146l47 -467l39 468l17 145h118l17 -146l39 -467l47 468zM558 146l-48 470l-47 -470h95z" />
    <glyph glyph-name="U_T" unicode="UT" horiz-adv-x="596" 
d="M214 109v591h364v-72h-112v-628h-76v628h-100v-512c0 -72 -57 -130 -127 -130s-127 58 -127 130v584h76v-591c0 -26 23 -51 51 -51s51 25 51 51z" />
    <glyph glyph-name="U_K" unicode="UK" horiz-adv-x="510" 
d="M290 616l-6 -247l140 331h78l-151 -356l151 -344h-79l-138 316c1 -58 5 -173 5 -200c0 -72 -57 -130 -127 -130s-127 58 -127 130v584h76v-591c0 -26 23 -51 51 -51s51 25 51 51v591h76v-84z" />
    <glyph glyph-name="N_K" unicode="NK" horiz-adv-x="562" 
d="M201 94l-97 517l10 -520v-91h-76v700h120l17 -85l98 -522l-9 524v83h78v-84l-6 -243l140 327h78l-151 -356l151 -344h-79l-138 317l5 -224v-93h-122z" />
    <glyph glyph-name="L_I" unicode="LI" horiz-adv-x="306" 
d="M38 0v700h76v-628h154v-72h-230zM192 144v556h76v-556h-76z" />
    <glyph glyph-name="N_N" unicode="NN" horiz-adv-x="604" 
d="M201 94l-97 517l10 -520v-91h-76v700h120l17 -85l98 -522l-9 524v83h120l17 -85l98 -522l-9 524v83h76v-700h-120l-19 94l-97 517l10 -520v-91h-120z" />
    <glyph glyph-name="U_N" unicode="UN" horiz-adv-x="554" 
d="M377 94l-97 515c3 -151 10 -440 10 -493c0 -72 -57 -130 -127 -130s-127 58 -127 130v584h76v-591c0 -26 23 -51 51 -51s51 25 51 51v591h120l17 -85l98 -522l-9 524v83h76v-700h-120z" />
    <glyph glyph-name="C_O" unicode="CO" 
d="M205 349c0 103 84 186 187 186c104 0 188 -83 188 -186c0 -102 -84 -185 -188 -185c-103 0 -187 83 -187 185zM276 349c0 -65 50 -116 116 -116s117 51 117 116s-51 117 -117 117s-116 -52 -116 -117zM628 178l60 -44c-67 -90 -174 -148 -296 -148
c-203 0 -368 163 -368 364s165 364 368 364c118 0 223 -56 291 -142l-58 -45c-53 70 -137 115 -233 115c-163 0 -292 -131 -292 -292s129 -292 292 -292c98 0 183 47 236 120z" />
    <glyph glyph-name="uni041E_uni041E" unicode="&#x41e;&#x41e;" horiz-adv-x="1157" 
d="M24 350c0 201 165 364 368 364c68 0 131 -19 186 -51c55 32 119 51 187 51c203 0 368 -163 368 -364s-165 -364 -368 -364c-68 0 -132 18 -187 50c-55 -32 -118 -50 -186 -50c-203 0 -368 163 -368 364zM397 350c0 105 48 202 120 269c-40 18 -81 26 -121 26
c-157 0 -296 -127 -296 -295c0 -167 142 -295 296 -295c40 0 81 8 120 27c-72 66 -119 163 -119 268zM473 350c0 -90 32 -173 105 -233c73 60 105 143 105 233s-32 173 -105 233c-73 -60 -105 -143 -105 -233zM760 350c0 -105 -47 -202 -119 -268c39 -19 80 -27 120 -27
c154 0 296 128 296 295c0 168 -139 295 -296 295c-40 0 -81 -8 -121 -26c72 -67 120 -164 120 -269z" />
    <glyph glyph-name="uni043E_uni043E" unicode="&#x43e;&#x43e;" horiz-adv-x="1157" 
d="M24 350c0 201 165 364 368 364c68 0 131 -19 186 -51c55 32 119 51 187 51c203 0 368 -163 368 -364s-165 -364 -368 -364c-68 0 -132 18 -187 50c-55 -32 -118 -50 -186 -50c-203 0 -368 163 -368 364zM397 350c0 105 48 202 120 269c-40 18 -81 26 -121 26
c-157 0 -296 -127 -296 -295c0 -167 142 -295 296 -295c40 0 81 8 120 27c-72 66 -119 163 -119 268zM473 350c0 -90 32 -173 105 -233c73 60 105 143 105 233s-32 173 -105 233c-73 -60 -105 -143 -105 -233zM760 350c0 -105 -47 -202 -119 -268c39 -19 80 -27 120 -27
c154 0 296 128 296 295c0 168 -139 295 -296 295c-40 0 -81 -8 -121 -26c72 -67 120 -164 120 -269z" />
    <glyph glyph-name="uni041E_uni0421" unicode="&#x41e;&#x421;" horiz-adv-x="1076" 
d="M397 350c0 105 48 202 120 269c-40 18 -81 26 -121 26c-157 0 -296 -127 -296 -295c0 -167 142 -295 296 -295c40 0 81 8 120 27c-72 66 -119 163 -119 268zM473 350c0 -90 32 -173 105 -233c73 60 105 143 105 233s-32 173 -105 233c-73 -60 -105 -143 -105 -233z
M761 55c103 0 182 44 240 123l60 -44c-67 -90 -174 -148 -296 -148c-68 0 -132 18 -187 50c-55 -32 -118 -50 -186 -50c-203 0 -368 163 -368 364s165 364 368 364c68 0 131 -19 186 -51c55 32 119 51 187 51c118 0 223 -56 291 -142l-58 -45c-53 70 -141 118 -237 118
c-40 0 -81 -8 -121 -26c72 -67 120 -164 120 -269s-47 -202 -119 -268c39 -19 80 -27 120 -27z" />
    <glyph glyph-name="uni043E_uni0441" unicode="&#x43e;&#x441;" horiz-adv-x="1076" 
d="M397 350c0 105 48 202 120 269c-40 18 -81 26 -121 26c-157 0 -296 -127 -296 -295c0 -167 142 -295 296 -295c40 0 81 8 120 27c-72 66 -119 163 -119 268zM473 350c0 -90 32 -173 105 -233c73 60 105 143 105 233s-32 173 -105 233c-73 -60 -105 -143 -105 -233z
M761 55c103 0 182 44 240 123l60 -44c-67 -90 -174 -148 -296 -148c-68 0 -132 18 -187 50c-55 -32 -118 -50 -186 -50c-203 0 -368 163 -368 364s165 364 368 364c68 0 131 -19 186 -51c55 32 119 51 187 51c118 0 223 -56 291 -142l-58 -45c-53 70 -141 118 -237 118
c-40 0 -81 -8 -121 -26c72 -67 120 -164 120 -269s-47 -202 -119 -268c39 -19 80 -27 120 -27z" />
    <glyph glyph-name="uni042E_uni0421" unicode="&#x42e;&#x421;" horiz-adv-x="1198" 
d="M883 55c102 0 187 50 240 123l60 -44c-67 -90 -174 -148 -296 -148c-68 0 -132 18 -187 50c-55 -32 -118 -50 -186 -50c-192 0 -351 146 -367 332h-33v-318h-76v700h76v-310h34c20 182 176 324 366 324c68 0 131 -19 186 -51c55 32 119 51 187 51c118 0 223 -56 291 -142
l-58 -45c-53 70 -137 118 -237 118c-40 0 -81 -8 -121 -26c72 -67 120 -164 120 -269s-47 -202 -119 -268c39 -19 80 -27 120 -27zM519 350c0 105 48 202 120 269c-40 18 -81 26 -121 26c-157 0 -296 -127 -296 -295c0 -167 142 -295 296 -295c40 0 81 8 120 27
c-72 66 -119 163 -119 268zM595 350c0 -90 32 -173 105 -233c73 60 105 143 105 233s-32 173 -105 233c-73 -60 -105 -143 -105 -233z" />
    <glyph glyph-name="uni044E_uni0441" unicode="&#x44e;&#x441;" horiz-adv-x="1198" 
d="M883 55c102 0 187 50 240 123l60 -44c-67 -90 -174 -148 -296 -148c-68 0 -132 18 -187 50c-55 -32 -118 -50 -186 -50c-192 0 -351 146 -367 332h-33v-318h-76v700h76v-310h34c20 182 176 324 366 324c68 0 131 -19 186 -51c55 32 119 51 187 51c118 0 223 -56 291 -142
l-58 -45c-53 70 -137 118 -237 118c-40 0 -81 -8 -121 -26c72 -67 120 -164 120 -269s-47 -202 -119 -268c39 -19 80 -27 120 -27zM519 350c0 105 48 202 120 269c-40 18 -81 26 -121 26c-157 0 -296 -127 -296 -295c0 -167 142 -295 296 -295c40 0 81 8 120 27
c-72 66 -119 163 -119 268zM595 350c0 -90 32 -173 105 -233c73 60 105 143 105 233s-32 173 -105 233c-73 -60 -105 -143 -105 -233z" />
    <glyph glyph-name="C_E" unicode="CE" 
d="M628 178l60 -44c-67 -90 -174 -148 -296 -148c-203 0 -368 163 -368 364s165 364 368 364c115 0 218 -54 286 -136l-53 -51c-53 70 -137 115 -233 115c-163 0 -292 -131 -292 -292s129 -292 292 -292c98 0 183 47 236 120zM550 454l-216 -209c19 -10 41 -16 65 -16
c40 0 81 23 103 52l54 -38c-34 -51 -96 -80 -157 -80c-108 0 -194 84 -194 186c0 103 84 186 187 186c56 0 124 -28 158 -81zM273 349c0 -21 5 -40 14 -57l162 163c-17 9 -36 14 -57 14c-68 0 -119 -53 -119 -120z" />
    <glyph glyph-name="c_e" unicode="ce" 
d="M628 178l60 -44c-67 -90 -174 -148 -296 -148c-203 0 -368 163 -368 364s165 364 368 364c115 0 218 -54 286 -136l-53 -51c-53 70 -137 115 -233 115c-163 0 -292 -131 -292 -292s129 -292 292 -292c98 0 183 47 236 120zM550 454l-216 -209c19 -10 41 -16 65 -16
c40 0 81 23 103 52l54 -38c-34 -51 -96 -80 -157 -80c-108 0 -194 84 -194 186c0 103 84 186 187 186c56 0 124 -28 158 -81zM273 349c0 -21 5 -40 14 -57l162 163c-17 9 -36 14 -57 14c-68 0 -119 -53 -119 -120z" />
    <glyph glyph-name="uni0421_uni0415" unicode="&#x421;&#x415;" 
d="M628 178l60 -44c-67 -90 -174 -148 -296 -148c-203 0 -368 163 -368 364s165 364 368 364c115 0 218 -54 286 -136l-53 -51c-53 70 -137 115 -233 115c-163 0 -292 -131 -292 -292s129 -292 292 -292c98 0 183 47 236 120zM550 454l-216 -209c19 -10 41 -16 65 -16
c40 0 81 23 103 52l54 -38c-34 -51 -96 -80 -157 -80c-108 0 -194 84 -194 186c0 103 84 186 187 186c56 0 124 -28 158 -81zM273 349c0 -21 5 -40 14 -57l162 163c-17 9 -36 14 -57 14c-68 0 -119 -53 -119 -120z" />
    <glyph glyph-name="uni0441_uni0435" unicode="&#x441;&#x435;" 
d="M628 178l60 -44c-67 -90 -174 -148 -296 -148c-203 0 -368 163 -368 364s165 364 368 364c115 0 218 -54 286 -136l-53 -51c-53 70 -137 115 -233 115c-163 0 -292 -131 -292 -292s129 -292 292 -292c98 0 183 47 236 120zM550 454l-216 -209c19 -10 41 -16 65 -16
c40 0 81 23 103 52l54 -38c-34 -51 -96 -80 -157 -80c-108 0 -194 84 -194 186c0 103 84 186 187 186c56 0 124 -28 158 -81zM273 349c0 -21 5 -40 14 -57l162 163c-17 9 -36 14 -57 14c-68 0 -119 -53 -119 -120z" />
    <glyph glyph-name=".notdef" horiz-adv-x="764" 
d="M38 0v700h688v-700h-688zM157 633l225 -234l225 234l-106 -5h-238zM330 349l-220 227l4 -106v-242l-4 -105zM607 67l-225 234l-225 -234l106 5h238zM434 351l220 -227l-4 106v242l4 105z" />
    <glyph glyph-name="quotedbl" unicode="&#x22;" horiz-adv-x="230" 
d="M35 440v260h66v-260h-66zM129 440v260h66v-260h-66z" />
    <glyph glyph-name="numbersign" unicode="#" horiz-adv-x="372" 
d="M177 0l34 242h-80l-34 -242h-65l34 242h-51l9 62h50l14 100h-50l9 62h50l33 234h65l-33 -234h80l33 234h65l-33 -234h50l-9 -62h-50l-14 -100h50l-9 -62h-49l-34 -242h-65zM153 404l-14 -100h80l14 100h-80z" />
    <glyph glyph-name="dollar" unicode="$" horiz-adv-x="455" 
d="M198 -12c-95 13 -169 91 -178 187l75 8c6 -70 63 -125 133 -125c74 0 133 61 133 137c0 86 -72 122 -144 158c-93 47 -166 83 -166 195c0 85 64 155 147 165v37h61v-41c74 -18 128 -82 128 -158l-76 -8c0 53 -41 99 -93 99c-47 0 -91 -44 -91 -94c0 -71 63 -101 125 -131
c107 -52 185 -104 185 -222c0 -106 -78 -192 -178 -207v-48h-61v48z" />
    <glyph glyph-name="percent" unicode="%" horiz-adv-x="578" 
d="M136 0l237 700h69l-237 -700h-69zM4 580c0 74 61 134 135 134s135 -60 135 -134c0 -73 -61 -133 -135 -133s-135 60 -135 133zM72 580c0 -37 29 -67 67 -67c37 0 67 30 67 67s-30 67 -67 67c-38 0 -67 -30 -67 -67zM304 119c0 74 61 134 135 134s135 -60 135 -134
c0 -73 -61 -133 -135 -133s-135 60 -135 133zM372 119c0 -37 29 -67 67 -67c37 0 67 30 67 67s-30 67 -67 67c-38 0 -67 -30 -67 -67z" />
    <glyph glyph-name="ampersand" unicode="&#x26;" horiz-adv-x="545" 
d="M382 0v46c-35 -39 -85 -60 -143 -60c-121 0 -219 97 -219 217c0 76 40 144 100 182c-44 34 -72 86 -72 146c0 101 82 183 186 183c98 0 180 -78 185 -175l-76 -8c0 61 -51 112 -109 112c-61 0 -111 -51 -111 -112c0 -57 46 -111 111 -111h308v-72h-84v-348h-76zM239 56
c77 0 143 59 143 133v159h-148c-79 0 -138 -67 -138 -145c0 -81 62 -147 143 -147z" />
    <glyph glyph-name="quotesingle" unicode="'" horiz-adv-x="134" 
d="M37 440v260h60v-260h-60z" />
    <glyph glyph-name="parenleft" unicode="(" horiz-adv-x="218" 
d="M212 758v-69c-51 0 -100 -48 -100 -102v-484c0 -54 49 -102 100 -102v-69c-94 0 -172 77 -172 171v484c0 94 78 171 172 171z" />
    <glyph glyph-name="parenright" unicode=")" horiz-adv-x="218" 
d="M6 689v69c94 0 172 -77 172 -171v-484c0 -94 -78 -171 -172 -171v69c51 0 100 48 100 102v484c0 54 -49 102 -100 102z" />
    <glyph glyph-name="asterisk" unicode="*" horiz-adv-x="409" 
d="M47 626l130 -79l-3 153h61l-4 -154l132 80l30 -53l-134 -74l134 -74l-31 -52l-131 78l4 -152h-61l3 153l-131 -79l-30 53l134 74l-134 74z" />
    <glyph glyph-name="plus" unicode="+" horiz-adv-x="604" 
d="M572 320h-234v-256h-72v256h-234v68h234v248h72v-248h234v-68z" />
    <glyph glyph-name="comma" unicode="," horiz-adv-x="135" 
d="M8 -134l41 210h69l-41 -210h-69z" />
    <glyph glyph-name="hyphen" unicode="-" horiz-adv-x="222" 
d="M190 319h-158v74h158v-74z" />
    <glyph glyph-name="period" unicode="." horiz-adv-x="154" 
d="M27 35c0 29 22 51 49 51c29 0 51 -22 51 -51c0 -27 -22 -49 -51 -49c-27 0 -49 22 -49 49z" />
    <glyph glyph-name="slash" unicode="/" horiz-adv-x="234" 
d="M-22 -60l210 810h68l-210 -810h-68z" />
    <glyph glyph-name="zero" unicode="0" horiz-adv-x="416" 
d="M111 543v-386c0 -52 47 -98 96 -98c52 0 98 46 98 98v386c0 52 -46 98 -98 98c-49 0 -96 -46 -96 -98zM35 157v386c0 94 78 171 172 171c97 0 174 -77 174 -171v-386c0 -94 -77 -171 -174 -171c-94 0 -172 77 -172 171z" />
    <glyph glyph-name="one" unicode="1" horiz-adv-x="203" 
d="M22 628v72h143v-700h-76v628h-67z" />
    <glyph glyph-name="two" unicode="2" horiz-adv-x="519" 
d="M192 68l218 4h54v-72h-386v58l283 269c48 45 68 87 68 139c0 97 -77 176 -174 176c-87 0 -158 -64 -171 -148l-73 13c20 118 122 207 245 207c137 0 249 -111 249 -247c0 -79 -30 -132 -89 -191l-55 -53z" />
    <glyph glyph-name="three" unicode="3" horiz-adv-x="521" 
d="M21 157l70 24c22 -71 87 -123 165 -123c97 0 174 79 174 176s-77 176 -174 176c-45 0 -67 -6 -90 -16l-38 67l179 167h-226v72h351v-58l-191 -171l19 2c137 0 246 -102 246 -240c0 -136 -112 -247 -249 -247c-110 0 -203 71 -236 171z" />
    <glyph glyph-name="four" unicode="4" horiz-adv-x="337" 
d="M183 700h116v-700h-76v74h-210v58zM94 146h129l13 470z" />
    <glyph glyph-name="five" unicode="5" horiz-adv-x="550" 
d="M7 151l69 29c30 -72 101 -122 185 -122c112 0 201 91 201 202s-89 202 -201 202c-51 0 -89 -12 -129 -35l-68 38l54 235h340v-72h-281l-26 -117c34 15 71 23 110 23c153 0 277 -123 277 -274s-124 -274 -277 -274c-114 0 -212 68 -254 165z" />
    <glyph glyph-name="six" unicode="6" horiz-adv-x="534" 
d="M22 233c0 43 11 93 43 143l220 338l64 -36l-38 -59l-112 -158c25 9 58 13 80 13c137 0 243 -103 243 -241c0 -136 -112 -247 -251 -247c-137 0 -249 111 -249 247zM446 235c0 96 -78 173 -176 173c-101 0 -175 -77 -175 -173c0 -97 78 -177 175 -177c98 0 176 80 176 177
z" />
    <glyph glyph-name="seven" unicode="7" horiz-adv-x="307" 
d="M-1 628v72h288v-58l-125 -642h-73l123 628h-213z" />
    <glyph glyph-name="eight" unicode="8" horiz-adv-x="496" 
d="M248 -14c-128 0 -232 103 -232 230c0 86 51 161 122 200c-38 31 -60 77 -60 127c0 94 78 171 172 171c97 0 174 -77 174 -171c0 -51 -23 -98 -62 -128c69 -40 118 -115 118 -199c0 -127 -104 -230 -232 -230zM247 376c-87 0 -155 -72 -155 -159c0 -88 68 -159 155 -159
c88 0 156 71 156 159c0 87 -68 159 -156 159zM154 543c0 -52 47 -99 96 -99c52 0 98 47 98 99s-46 98 -98 98c-49 0 -96 -46 -96 -98z" />
    <glyph glyph-name="nine" unicode="9" horiz-adv-x="520" 
d="M508 468c0 -44 -8 -89 -48 -151l-215 -331l-64 36l38 59l114 160c-31 -10 -59 -12 -80 -12c-137 0 -242 102 -242 239c0 136 111 246 249 246c137 0 248 -110 248 -246zM86 465c0 -97 78 -174 176 -174c97 0 175 77 175 174c0 98 -78 178 -175 178
c-98 0 -176 -80 -176 -178z" />
    <glyph glyph-name="colon" unicode=":" horiz-adv-x="136" 
d="M25 272c0 25 19 44 42 44c25 0 44 -19 44 -44c0 -23 -19 -42 -44 -42c-23 0 -42 19 -42 42zM25 434c0 25 19 44 42 44c25 0 44 -19 44 -44c0 -23 -19 -42 -44 -42c-23 0 -42 19 -42 42z" />
    <glyph glyph-name="semicolon" unicode=";" horiz-adv-x="150" 
d="M40 208c0 25 19 44 42 44c25 0 44 -19 44 -44c0 -23 -19 -42 -44 -42c-23 0 -42 19 -42 42zM8 -134l41 210h69l-41 -210h-69z" />
    <glyph glyph-name="less" unicode="&#x3c;" horiz-adv-x="300" 
d="M-8 354l288 195v-87l-172 -108l172 -108v-87z" />
    <glyph glyph-name="equal" unicode="=" horiz-adv-x="338" 
d="M306 400h-274v68h274v-68zM306 240h-274v68h274v-68z" />
    <glyph glyph-name="greater" unicode="&#x3e;" horiz-adv-x="300" 
d="M20 549l288 -195l-288 -195v87l172 108l-172 108v87z" />
    <glyph glyph-name="question" unicode="?" horiz-adv-x="443" 
d="M256 152h-76v14c0 169 171 223 171 339c0 76 -59 137 -133 137c-70 0 -127 -55 -133 -125l-75 8c10 106 100 189 208 189c115 0 209 -93 209 -209c0 -143 -171 -191 -171 -339v-14zM169 35c0 -27 22 -49 49 -49c29 0 51 22 51 49c0 29 -22 51 -51 51
c-27 0 -49 -22 -49 -51z" />
    <glyph glyph-name="at" unicode="@" horiz-adv-x="785" 
d="M588 317c0 -33 4 -86 48 -86c27 0 48 24 48 73v34c0 180 -131 304 -292 304c-163 0 -292 -131 -292 -292s129 -292 292 -292c54 0 104 14 147 39l40 -61c-55 -32 -119 -50 -187 -50c-203 0 -368 163 -368 364s165 364 368 364c201 0 368 -155 368 -376v-33
c0 -100 -56 -149 -126 -149c-47 0 -86 22 -100 65c-33 -43 -81 -66 -139 -66c-108 0 -195 86 -195 194c0 106 87 192 195 192c80 0 147 -45 178 -119c12 -28 15 -66 15 -105zM277 348c0 -67 51 -120 117 -120c67 0 118 53 118 120s-51 120 -118 120
c-66 0 -117 -53 -117 -120z" />
    <glyph glyph-name="A" unicode="A" horiz-adv-x="313" 
d="M98 700h117l80 -700h-74l-9 74h-112l-8 -74h-74zM204 146l-48 470l-47 -470h95z" />
    <glyph glyph-name="B" unicode="B" horiz-adv-x="341" 
d="M104 0h-66v700h33c103 0 176 -87 176 -175c0 -42 -14 -80 -42 -107c76 -38 125 -111 125 -195c0 -123 -102 -223 -226 -223zM254 223c0 77 -63 145 -140 151v-303c77 6 140 74 140 152zM171 525c0 41 -23 77 -57 95v-190c34 17 57 54 57 95z" />
    <glyph glyph-name="C" unicode="C" 
d="M628 178l60 -44c-67 -90 -174 -148 -296 -148c-203 0 -368 163 -368 364s165 364 368 364c118 0 223 -56 291 -142l-58 -45c-53 70 -137 115 -233 115c-163 0 -292 -131 -292 -292s129 -292 292 -292c98 0 183 47 236 120z" />
    <glyph glyph-name="D" unicode="D" horiz-adv-x="452" 
d="M74 0h-36v700h36c195 0 354 -157 354 -350s-159 -350 -354 -350zM352 350c0 140 -97 260 -238 275v-551c136 10 238 135 238 276z" />
    <glyph glyph-name="E" unicode="E" horiz-adv-x="730" 
d="M410 58c99 0 182 39 240 127l60 -44c-72 -104 -176 -155 -300 -155c-230 0 -386 163 -386 364s165 364 368 364c139 0 260 -77 323 -190l-539 -372c53 -58 136 -94 234 -94zM100 350c0 -50 12 -96 34 -137l478 329c-53 61 -132 100 -220 100c-163 0 -292 -131 -292 -292z
" />
    <glyph glyph-name="F" unicode="F" horiz-adv-x="302" 
d="M38 0v700h251v-72h-175v-353h115v-72h-115v-203h-76z" />
    <glyph glyph-name="G" unicode="G" horiz-adv-x="745" 
d="M730 275c-6 -196 -178 -289 -326 -289c-213 0 -380 153 -380 364c0 201 165 364 368 364c118 0 223 -56 291 -142l-58 -45c-53 70 -137 115 -233 115c-163 0 -292 -131 -292 -292s123 -292 304 -292c135 0 215 73 238 145h-141v72h229z" />
    <glyph glyph-name="H" unicode="H" horiz-adv-x="338" 
d="M114 203v-203h-76v700h76v-425h110v425h76v-700h-76v203h-110z" />
    <glyph glyph-name="I" unicode="I" horiz-adv-x="156" 
d="M40 0v700h76v-700h-76z" />
    <glyph glyph-name="J" unicode="J" horiz-adv-x="258" 
d="M-13 50l65 34c9 -15 26 -26 44 -26c28 0 51 25 51 51v591h76v-584c0 -72 -57 -130 -127 -130c-46 0 -87 26 -109 64z" />
    <glyph glyph-name="K" unicode="K" horiz-adv-x="334" 
d="M38 0v700h76v-84l-6 -247l140 331h78l-151 -356l151 -344h-79l-138 317l5 -224v-93h-76z" />
    <glyph glyph-name="L" unicode="L" horiz-adv-x="286" 
d="M38 0v700h76v-628h154v-72h-230z" />
    <glyph glyph-name="M" unicode="M" horiz-adv-x="506" 
d="M312 0h-118l-63 620l-32 -528l-7 -92h-74l48 700h131l17 -145l39 -461l39 461l17 145h131l48 -700h-74l-7 92l-32 528z" />
    <glyph glyph-name="N" unicode="N" horiz-adv-x="378" 
d="M200 94l-96 516l10 -519v-91h-76v700h121l17 -85l97 -521l-9 523v83h76v-700h-121z" />
    <glyph glyph-name="O" unicode="O" horiz-adv-x="784" 
d="M24 350c0 201 165 364 368 364s368 -163 368 -364s-165 -364 -368 -364s-368 163 -368 364zM100 350c0 -161 129 -292 292 -292s292 131 292 292s-129 292 -292 292s-292 -131 -292 -292z" />
    <glyph glyph-name="P" unicode="P" horiz-adv-x="383" 
d="M38 0v700h46c157 0 284 -126 284 -281c0 -145 -111 -265 -254 -280v-139h-76zM292 419c0 105 -72 198 -178 207v-414c104 6 178 102 178 207z" />
    <glyph glyph-name="Q" unicode="Q" horiz-adv-x="784" 
d="M24 350c0 201 165 364 368 364s368 -163 368 -364c0 -91 -34 -175 -90 -239l67 -78l-54 -47l-66 76c-62 -48 -140 -76 -225 -76c-203 0 -368 163 -368 364zM517 180l55 47l49 -59c40 50 63 113 63 182c0 161 -129 292 -292 292s-292 -131 -292 -292s129 -292 292 -292
c67 0 129 22 178 60z" />
    <glyph glyph-name="R" unicode="R" horiz-adv-x="362" 
d="M38 0v700h46c140 0 255 -113 255 -252c0 -100 -60 -185 -146 -226l145 -222h-88l-136 209v-209h-76zM263 448c0 89 -64 163 -149 178v-358c85 15 149 91 149 180z" />
    <glyph glyph-name="S" unicode="S" horiz-adv-x="450" 
d="M386 551l-76 -8c0 53 -36 99 -93 99c-55 0 -91 -44 -91 -94c0 -71 63 -101 125 -131c107 -52 185 -104 185 -222c0 -116 -94 -209 -209 -209c-108 0 -198 83 -208 189l75 8c6 -70 63 -125 133 -125c74 0 133 61 133 137c0 86 -72 122 -144 158c-93 47 -166 83 -166 195
c0 92 75 166 167 166c95 -1 169 -73 169 -163z" />
    <glyph glyph-name="T" unicode="T" horiz-adv-x="336" 
d="M18 628v72h300v-72h-112v-628h-76v628h-112z" />
    <glyph glyph-name="U" unicode="U" horiz-adv-x="326" 
d="M214 109v591h76v-584c0 -72 -57 -130 -127 -130s-127 58 -127 130v584h76v-591c0 -26 23 -51 51 -51s51 25 51 51z" />
    <glyph glyph-name="V" unicode="V" horiz-adv-x="308" 
d="M111 554l43 -467l43 468l17 145h74l-75 -700h-118l-75 700h74z" />
    <glyph glyph-name="W" unicode="W" horiz-adv-x="546" 
d="M446 0h-118l-10 94l-45 516l-45 -517l-10 -93h-118l-80 700h74l17 -146l47 -467l39 468l17 145h118l17 -146l39 -467l47 468l17 145h74z" />
    <glyph glyph-name="X" unicode="X" horiz-adv-x="725" 
d="M8 700h100l73 -84l181 -214l182 214l73 84h100l-305 -350l305 -350h-99l-81 92l-175 207l-175 -207l-80 -92h-99l304 350z" />
    <glyph glyph-name="Y" unicode="Y" horiz-adv-x="272" 
d="M101 0v108l-94 592h74l16 -90l41 -345l38 345l15 90h74l-88 -592v-108h-76z" />
    <glyph glyph-name="Z" unicode="Z" horiz-adv-x="301" 
d="M19 628v72h263v-58l-181 -570h181v-72h-263v58l180 570h-180z" />
    <glyph glyph-name="bracketleft" unicode="[" horiz-adv-x="169" 
d="M38 -60v810h109v-72h-41l4 -136v-397l-4 -133h41v-72h-109z" />
    <glyph glyph-name="backslash" unicode="\" horiz-adv-x="234" 
d="M46 750l210 -810h-68l-210 810h68z" />
    <glyph glyph-name="bracketright" unicode="]" horiz-adv-x="169" 
d="M131 750v-810h-109v72h40l-3 133v397l3 136h-40v72h109z" />
    <glyph glyph-name="asciicircum" unicode="^" horiz-adv-x="292" 
d="M17 299l88 401h80l90 -401h-68l-13 60l-49 248l-47 -249l-13 -59h-68z" />
    <glyph glyph-name="underscore" unicode="_" horiz-adv-x="698" 
d="M714 -153h-730v68h730v-68z" />
    <glyph glyph-name="braceleft" unicode="{" horiz-adv-x="262" 
d="M162 250v-147c0 -54 49 -102 100 -102v-69c-94 0 -172 77 -172 171v127c0 47 -12 58 -36 80l-50 44l50 44c24 22 36 33 36 80v109c0 94 78 171 172 171v-69c-51 0 -100 -48 -100 -102v-129c0 -45 -17 -78 -59 -104c42 -26 59 -59 59 -104z" />
    <glyph glyph-name="bar" unicode="|" horiz-adv-x="152" 
d="M40 -60v810h72v-810h-72z" />
    <glyph glyph-name="braceright" unicode="}" horiz-adv-x="262" 
d="M100 103v147c0 45 17 78 59 104c-42 26 -59 59 -59 104v129c0 54 -49 102 -100 102v69c94 0 172 -77 172 -171v-109c0 -47 12 -58 36 -80l50 -44l-50 -44c-24 -22 -36 -33 -36 -80v-127c0 -94 -78 -171 -172 -171v69c51 0 100 48 100 102z" />
    <glyph glyph-name="asciitilde" unicode="~" horiz-adv-x="626" 
d="M20 272c0 94 78 171 172 171c60 0 99 -25 143 -59c27 -21 60 -47 99 -47c49 0 96 46 96 98h76c0 -94 -78 -171 -172 -171c-35 0 -72 4 -143 59c-53 41 -68 47 -99 47c-49 0 -96 -46 -96 -98h-76z" />
    <glyph glyph-name="uni0410" unicode="&#x410;" horiz-adv-x="313" 
d="M98 700h117l80 -700h-74l-9 74h-112l-8 -74h-74zM156 616l-47 -470h95z" />
    <glyph glyph-name="uni0411" unicode="&#x411;" horiz-adv-x="369" 
d="M38 0v700h232v-72h-156v-110c134 -12 240 -123 240 -259c0 -143 -118 -259 -263 -259h-53zM278 259c0 95 -72 181 -164 186v-372c94 5 164 91 164 186z" />
    <glyph glyph-name="uni0412" unicode="&#x412;" horiz-adv-x="343" 
d="M104 0h-66v700h33c103 0 176 -87 176 -175c0 -42 -14 -80 -42 -107c76 -38 125 -111 125 -195c0 -123 -102 -223 -226 -223zM254 223c0 77 -63 145 -140 151v-303c77 6 140 74 140 152zM171 525c0 41 -23 77 -57 95v-190c34 17 57 54 57 95z" />
    <glyph glyph-name="uni0413" unicode="&#x413;" horiz-adv-x="282" 
d="M38 0v700h236v-72h-160v-628h-76z" />
    <glyph glyph-name="uni0414" unicode="&#x414;" horiz-adv-x="349" 
d="M233 700l70 -628h44v-132h-76v60h-193v-60h-76v132h44l70 628h117zM220 145l-46 467l-45 -466l-9 -74h108z" />
    <glyph glyph-name="uni0415" unicode="&#x415;" horiz-adv-x="730" 
d="M410 58c99 0 188 47 240 127l60 -44c-72 -104 -176 -155 -300 -155c-230 0 -386 163 -386 364s165 364 368 364c139 0 260 -77 323 -190l-539 -372c53 -58 136 -94 234 -94zM100 350c0 -50 12 -96 34 -137l478 329c-53 61 -132 100 -220 100c-163 0 -292 -131 -292 -292z
" />
    <glyph glyph-name="uni0416" unicode="&#x416;" horiz-adv-x="468" 
d="M196 92l5 234l-114 -326h-79l122 348l-117 352h78l110 -331l-5 247v84h76v-84l-6 -247l111 331h78l-118 -352l123 -348h-79l-115 326l6 -234v-92h-76v92z" />
    <glyph glyph-name="uni0417" unicode="&#x417;" horiz-adv-x="475" 
d="M14 156l74 18c16 -68 74 -118 148 -118c87 0 152 70 152 156s-65 154 -152 154h-41v72h47c53 0 90 51 90 102c0 56 -46 103 -102 103s-102 -47 -102 -103v-8l-76 8c0 95 79 174 178 174s178 -79 178 -174c0 -53 -24 -103 -73 -134c84 -35 129 -116 129 -193
c0 -126 -102 -227 -228 -227c-107 0 -196 71 -222 170z" />
    <glyph glyph-name="uni0418" unicode="&#x418;" horiz-adv-x="378" 
d="M38 700h76v-83l-10 -523l98 521l17 85h121v-700h-76v91l10 519l-96 -516l-19 -94h-121v700z" />
    <glyph glyph-name="uni0419" unicode="&#x419;" horiz-adv-x="378" 
d="M38 700h76v-83l-10 -523l98 521l17 85h121v-700h-76v91l10 519l-96 -516l-19 -94h-121v700zM90 839h64v-4c0 -16 16 -30 34 -30c19 0 35 14 35 30v4h64v-6c0 -51 -45 -90 -99 -90c-53 0 -98 39 -98 90v6z" />
    <glyph glyph-name="uni041A" unicode="&#x41a;" horiz-adv-x="334" 
d="M38 0v700h76v-84l-6 -247l140 331h78l-151 -356l151 -344h-79l-138 317l5 -224v-93h-76z" />
    <glyph glyph-name="uni041B" unicode="&#x41b;" horiz-adv-x="305" 
d="M211 700l76 -700h-74l-17 145l-44 464l-43 -463l-17 -146h-74l76 700h117z" />
    <glyph glyph-name="uni041C" unicode="&#x41c;" horiz-adv-x="506" 
d="M312 0h-118l-63 620l-32 -528l-7 -92h-74l48 700h131l17 -145l39 -461l39 461l17 145h131l48 -700h-74l-7 92l-32 528z" />
    <glyph glyph-name="uni041D" unicode="&#x41d;" horiz-adv-x="338" 
d="M224 0v203h-110v-203h-76v700h76v-425h110v425h76v-700h-76z" />
    <glyph glyph-name="uni041E" unicode="&#x41e;" horiz-adv-x="784" 
d="M24 350c0 201 165 364 368 364s368 -163 368 -364s-165 -364 -368 -364s-368 163 -368 364zM100 350c0 -161 129 -292 292 -292s292 131 292 292s-129 292 -292 292s-292 -131 -292 -292z" />
    <glyph glyph-name="uni041F" unicode="&#x41f;" horiz-adv-x="334" 
d="M220 0v628h-106v-628h-76v700h258v-700h-76z" />
    <glyph glyph-name="uni0420" unicode="&#x420;" horiz-adv-x="383" 
d="M38 0v700h46c157 0 284 -126 284 -281c0 -145 -111 -265 -254 -280v-139h-76zM292 419c0 105 -72 198 -178 207v-414c104 6 178 102 178 207z" />
    <glyph glyph-name="uni0421" unicode="&#x421;" 
d="M628 178l60 -44c-67 -90 -174 -148 -296 -148c-203 0 -368 163 -368 364s165 364 368 364c118 0 223 -56 291 -142l-58 -45c-53 70 -137 115 -233 115c-163 0 -292 -131 -292 -292s129 -292 292 -292c98 0 183 47 236 120z" />
    <glyph glyph-name="uni0422" unicode="&#x422;" horiz-adv-x="336" 
d="M18 628v72h300v-72h-112v-628h-76v628h-112z" />
    <glyph glyph-name="uni0423" unicode="&#x423;" horiz-adv-x="315" 
d="M161 216l42 344l18 140h74l-90 -700h-74l16 126h-43l-84 574h74l21 -140z" />
    <glyph glyph-name="uni0424" unicode="&#x424;" horiz-adv-x="676" 
d="M300 -14v67c-156 11 -279 140 -279 297c0 156 123 286 279 297v53h76v-53c156 -11 279 -141 279 -297c0 -157 -123 -286 -279 -297v-67h-76zM579 350c0 117 -88 214 -203 225v-450c115 6 203 107 203 225zM97 350c0 -118 87 -219 203 -225v450
c-116 -11 -203 -108 -203 -225z" />
    <glyph glyph-name="uni0425" unicode="&#x425;" horiz-adv-x="725" 
d="M8 700h100l73 -84l181 -214l182 214l73 84h100l-305 -350l305 -350h-99l-81 92l-175 207l-175 -207l-80 -92h-99l304 350z" />
    <glyph glyph-name="uni0426" unicode="&#x426;" horiz-adv-x="349" 
d="M38 0v700h76v-628h104v628h76v-628h44v-132h-76v60h-224z" />
    <glyph glyph-name="uni0427" unicode="&#x427;" horiz-adv-x="324" 
d="M210 0v160c-12 -12 -32 -16 -53 -16c-70 0 -127 57 -127 127v429h76v-433c0 -28 23 -51 51 -51c30 0 53 23 53 51v433h76v-700h-76z" />
    <glyph glyph-name="uni0428" unicode="&#x428;" horiz-adv-x="492" 
d="M454 0h-416v700h76v-628h94v628h76v-628h94v628h76v-700z" />
    <glyph glyph-name="uni0429" unicode="&#x429;" horiz-adv-x="509" 
d="M422 0h-384v700h76v-628h94v628h76v-628h94v628h76v-628h44v-132h-76v60z" />
    <glyph glyph-name="uni042A" unicode="&#x42a;" horiz-adv-x="470" 
d="M6 628v72h188v-139c146 -12 261 -133 261 -280c0 -155 -127 -281 -284 -281h-53v628h-112zM379 281c0 107 -73 197 -185 208v-416c107 4 185 100 185 208z" />
    <glyph glyph-name="uni042B" unicode="&#x42b;" horiz-adv-x="527" 
d="M114 700v-139c146 -12 261 -133 261 -280c0 -155 -127 -281 -284 -281h-53v700h76zM413 0v700h76v-700h-76zM299 281c0 107 -73 197 -185 208v-416c107 4 185 100 185 208z" />
    <glyph glyph-name="uni042C" unicode="&#x42c;" horiz-adv-x="390" 
d="M114 700v-139c146 -12 261 -133 261 -280c0 -155 -127 -281 -284 -281h-53v700h76zM299 281c0 107 -73 197 -185 208v-416c107 4 185 100 185 208z" />
    <glyph glyph-name="uni042D" unicode="&#x42d;" horiz-adv-x="701" 
d="M242 318v72h356c-18 142 -132 252 -281 252c-96 0 -180 -45 -233 -115l-58 45c68 86 173 142 291 142c211 0 360 -163 360 -364c0 -212 -157 -364 -360 -364c-122 0 -229 58 -296 148l60 44c53 -73 138 -120 236 -120c152 0 268 105 282 260h-357z" />
    <glyph glyph-name="uni042E" unicode="&#x42e;" horiz-adv-x="906" 
d="M38 0v700h76v-310h34c20 182 176 324 366 324c203 0 368 -163 368 -364s-165 -364 -368 -364c-192 0 -351 146 -367 332h-33v-318h-76zM222 350c0 -161 129 -292 292 -292s292 131 292 292s-129 292 -292 292s-292 -131 -292 -292z" />
    <glyph glyph-name="uni042F" unicode="&#x42f;" horiz-adv-x="362" 
d="M324 700v-700h-76v208l-106 -208h-83l112 221c-87 40 -148 126 -148 227c0 139 115 252 255 252h46zM99 448c0 -89 64 -165 149 -180v358c-85 -15 -149 -89 -149 -178z" />
    <glyph glyph-name="dagger" unicode="&#x2020;" horiz-adv-x="254" 
d="M244 591h-81v-651h-72v651h-81v68h81v91h72v-91h81v-68z" />
    <glyph glyph-name="degree" unicode="&#xb0;" horiz-adv-x="235" 
d="M14 612c0 56 47 102 103 102c57 0 104 -46 104 -102c0 -57 -47 -102 -104 -102c-56 0 -103 45 -103 102zM75 612c0 -24 18 -43 42 -43s42 19 42 43c0 23 -18 42 -42 42s-42 -19 -42 -42z" />
    <glyph glyph-name="sterling" unicode="&#xa3;" horiz-adv-x="433" 
d="M422 562l-70 -22c-16 53 -63 95 -127 95c-67 0 -135 -55 -135 -135c0 -61 47 -108 94 -155l31 -31l95 65l41 -60l-89 -61c18 -27 29 -56 29 -90c0 -36 -13 -70 -40 -96h100v-72h-221v58c37 14 81 54 81 106c0 51 -39 92 -80 132c-67 65 -117 125 -117 202
c0 125 103 210 209 210c98 0 173 -66 199 -146z" />
    <glyph glyph-name="section" unicode="&#xa7;" horiz-adv-x="338" 
d="M52 93l75 10c6 -25 26 -45 48 -45c26 0 50 23 50 51c0 40 -34 69 -115 104c-61 26 -91 76 -91 138c0 57 31 106 78 132c-33 23 -59 56 -59 108c0 67 55 123 124 123c54 -1 99 -35 117 -84l-71 -25c-8 21 -26 37 -46 37c-26 0 -50 -23 -50 -51c0 -38 31 -67 104 -98
c69 -29 103 -76 103 -142c0 -58 -33 -108 -81 -133c34 -24 61 -57 61 -109c0 -67 -55 -123 -124 -123c-62 1 -112 46 -123 107zM94 351c0 -41 34 -75 75 -75s75 34 75 75s-34 75 -75 75s-75 -34 -75 -75z" />
    <glyph glyph-name="bullet" unicode="&#x2022;" horiz-adv-x="274" 
d="M23 354c0 63 50 114 114 114s114 -51 114 -114s-50 -114 -114 -114s-114 51 -114 114z" />
    <glyph glyph-name="paragraph" unicode="&#xb6;" horiz-adv-x="514" 
d="M320 700h156v-700h-76v628h-50v-628h-76v139c-143 15 -254 135 -254 280c0 155 124 281 300 281zM96 419c0 -105 76 -193 178 -207v414c-102 -15 -178 -102 -178 -207z" />
    <glyph glyph-name="registered" unicode="&#xae;" horiz-adv-x="784" 
d="M24 350c0 201 165 364 368 364s368 -163 368 -364s-165 -364 -368 -364s-368 163 -368 364zM100 350c0 -161 129 -292 292 -292s292 131 292 292s-129 292 -292 292s-292 -131 -292 -292zM294 138v427h58c93 0 169 -76 169 -169c0 -60 -33 -111 -92 -138l104 -120h-87
l-84 105v-105h-68zM453 396c0 52 -40 95 -91 100v-201c51 5 91 48 91 101z" />
    <glyph glyph-name="copyright" unicode="&#xa9;" horiz-adv-x="784" 
d="M24 350c0 201 165 364 368 364s368 -163 368 -364s-165 -364 -368 -364s-368 163 -368 364zM100 350c0 -161 129 -292 292 -292s292 131 292 292s-129 292 -292 292s-292 -131 -292 -292zM513 258l56 -42c-40 -51 -103 -85 -173 -85c-118 0 -216 95 -216 213
s98 213 216 213c69 0 129 -33 169 -82l-53 -42c-26 35 -68 58 -117 58c-82 0 -147 -67 -147 -147s65 -147 147 -147c50 0 92 24 118 61z" />
    <glyph glyph-name="notequal" unicode="&#x2260;" horiz-adv-x="316" 
d="M295 240h-133l-28 -110h-68l28 110h-73v68h91l24 92h-115v68h132l30 114h68l-30 -114h74v-68h-91l-24 -92h115v-68z" />
    <glyph glyph-name="guillemotleft" unicode="&#xab;" horiz-adv-x="243" 
d="M137 157h-63l-58 197l54 184h63l-54 -184zM230 157h-63l-58 197l54 184h63l-54 -184z" />
    <glyph glyph-name="guillemotright" unicode="&#xbb;" horiz-adv-x="251" 
d="M80 157h-67l58 197l-54 184h67l54 -184zM177 157h-67l58 197l-54 184h67l54 -184z" />
    <glyph glyph-name="ellipsis" unicode="&#x2026;" horiz-adv-x="470" 
d="M21 35c0 29 22 51 49 51c29 0 51 -22 51 -51c0 -27 -22 -49 -51 -49c-27 0 -49 22 -49 49zM185 35c0 29 22 51 49 51c29 0 51 -22 51 -51c0 -27 -22 -49 -51 -49c-27 0 -49 22 -49 49zM349 35c0 29 22 51 49 51c29 0 51 -22 51 -51c0 -27 -22 -49 -51 -49
c-27 0 -49 22 -49 49z" />
    <glyph glyph-name="endash" unicode="&#x2013;" horiz-adv-x="366" 
d="M334 320h-302v68h302v-68z" />
    <glyph glyph-name="emdash" unicode="&#x2014;" horiz-adv-x="850" 
d="M745 320h-640v68h640v-68z" />
    <glyph glyph-name="divide" unicode="&#xf7;" horiz-adv-x="254" 
d="M78 203c0 29 22 51 49 51c29 0 51 -22 51 -51c0 -27 -22 -49 -51 -49c-27 0 -49 22 -49 49zM78 503c0 29 22 51 49 51c29 0 51 -22 51 -51c0 -27 -22 -49 -51 -49c-27 0 -49 22 -49 49zM244 322h-234v68h234v-68z" />
    <glyph glyph-name="quotedblbase" unicode="&#x201e;" horiz-adv-x="235" 
d="M9 -134l41 210h69l-41 -210h-69zM108 -134l41 210h69l-41 -210h-69z" />
    <glyph glyph-name="uni2116" unicode="&#x2116;" horiz-adv-x="597" 
d="M203 94l-100 518l11 -521v-91h-76v700h118l17 -85l100 -523l-9 525v83h76v-700h-118zM384 612c0 56 47 102 103 102c57 0 104 -46 104 -102c0 -57 -47 -102 -104 -102c-56 0 -103 45 -103 102zM396 406v60h183v-60h-183zM445 612c0 -24 18 -43 42 -43s42 19 42 43
c0 23 -18 42 -42 42s-42 -19 -42 -42z" />
    <glyph glyph-name="uni0401" unicode="&#x401;" horiz-adv-x="730" 
d="M214 814c0 32 24 56 54 56c32 0 56 -24 56 -56c0 -30 -24 -54 -56 -54c-30 0 -54 24 -54 54zM406 814c0 32 24 56 54 56c32 0 56 -24 56 -56c0 -30 -24 -54 -56 -54c-30 0 -54 24 -54 54zM410 58c99 0 188 47 240 127l60 -44c-72 -104 -176 -155 -300 -155
c-230 0 -386 163 -386 364s165 364 368 364c139 0 260 -77 323 -190l-539 -372c53 -58 136 -94 234 -94zM100 350c0 -50 12 -96 34 -137l478 329c-53 61 -132 100 -220 100c-163 0 -292 -131 -292 -292z" />
    <glyph glyph-name="Euro" unicode="&#x20ac;" horiz-adv-x="744" 
d="M669 178l60 -44c-67 -90 -174 -148 -296 -148c-170 0 -313 113 -355 268h-78l10 68h56c-1 9 -1 18 -1 28c0 12 0 24 1 36h-66l10 68h70c46 150 186 260 353 260c118 0 223 -56 291 -142l-58 -45c-53 70 -137 115 -233 115c-126 0 -232 -78 -273 -188h379l-10 -68h-386
c-2 -12 -2 -24 -2 -36c0 -10 0 -19 1 -28h377l-10 -68h-352c39 -114 147 -196 276 -196c98 0 183 47 236 120z" />
    <glyph glyph-name="cent" unicode="&#xa2;" horiz-adv-x="517" 
d="M229 -60v153c-123 23 -215 129 -215 257s92 234 215 256v144h72v-140c89 -8 166 -61 208 -136l-70 -35c-28 52 -78 89 -138 97v-373c61 8 112 47 140 101l69 -34c-40 -78 -118 -132 -209 -140v-150h-72zM90 350c0 -88 58 -161 139 -182v364c-81 -21 -139 -95 -139 -182z
" />
    <glyph glyph-name="AE" unicode="&#xc6;" horiz-adv-x="891" 
d="M571 -14c-114 0 -222 45 -294 124l-160 -110h-99l80 700h117l21 -185c62 130 182 199 317 199c139 0 260 -77 323 -190l-539 -372c53 -58 136 -94 234 -94c99 0 188 47 240 127l60 -44c-72 -104 -176 -155 -300 -155zM295 213l478 329c-53 61 -132 100 -220 100
c-163 0 -292 -131 -292 -292c0 -50 12 -96 34 -137zM109 146l-9 -74l133 97c-26 44 -39 70 -47 149l-30 298z" />
    <glyph glyph-name="yen" unicode="&#xa5;" horiz-adv-x="322" 
d="M278 118h-81v-118h-72v118h-81v68h81v92h-81v68h81v58l-108 296h81l14 -39l49 -162l49 162l14 39h81l-108 -296v-58h81v-68h-81v-92h81v-68z" />
    <glyph glyph-name="daggerdbl" unicode="&#x2021;" horiz-adv-x="272" 
d="M253 241h-81v-301h-72v301h-81v68h81v92h-81v68h81v281h72v-281h81v-68h-81v-92h81v-68z" />
    <glyph glyph-name="OE" unicode="&#x152;" horiz-adv-x="1390" 
d="M100 350c0 -161 129 -292 292 -292s292 131 292 292s-129 292 -292 292s-292 -131 -292 -292zM760 350c0 -50 12 -96 34 -137l478 329c-53 61 -132 100 -220 100c-163 0 -292 -131 -292 -292zM1070 -14c-134 0 -276 62 -348 218c-59 -134 -186 -218 -330 -218
c-203 0 -368 163 -368 364s165 364 368 364c144 0 273 -84 330 -218c62 134 185 218 330 218c139 0 260 -77 323 -190l-539 -372c53 -58 136 -94 234 -94c99 0 188 47 240 127l60 -44c-72 -104 -176 -155 -300 -155z" />
    <glyph glyph-name="uni0490" unicode="&#x490;" horiz-adv-x="282" 
d="M114 628v-628h-76v700h160v60h76v-132h-160z" />
    <glyph glyph-name="uni0406" unicode="&#x406;" horiz-adv-x="156" 
d="M40 0v700h76v-700h-76z" />
    <glyph glyph-name="uni0407" unicode="&#x407;" horiz-adv-x="196" 
d="M60 0v700h76v-700h-76zM-53 812c0 32 24 56 54 56c32 0 56 -24 56 -56c0 -30 -24 -54 -56 -54c-30 0 -54 24 -54 54zM139 812c0 32 24 56 54 56c32 0 56 -24 56 -56c0 -30 -24 -54 -56 -54c-30 0 -54 24 -54 54z" />
    <glyph glyph-name="uni040E" unicode="&#x40e;" horiz-adv-x="315" 
d="M59 839h64v-4c0 -16 16 -30 34 -30c19 0 35 14 35 30v4h64v-6c0 -51 -45 -90 -99 -90c-53 0 -98 39 -98 90v6zM161 216l42 344l18 140h74l-90 -700h-74l16 126h-43l-84 574h74l21 -140z" />
    <glyph glyph-name="uni0404" unicode="&#x404;" 
d="M628 178l60 -44c-67 -90 -174 -148 -296 -148c-203 0 -368 163 -368 364s165 364 368 364c118 0 223 -56 291 -142l-58 -45c-53 70 -137 115 -233 115c-150 0 -270 -110 -290 -252h364v-72h-365c16 -146 139 -260 291 -260c98 0 183 47 236 120z" />
    <glyph glyph-name="A.salt" horiz-adv-x="792" 
d="M24 350c0 201 165 364 368 364c117 0 221 -61 286 -149v135h76v-700h-76v140c-65 -97 -167 -154 -286 -154c-203 0 -368 163 -368 364zM100 350c0 -161 129 -292 292 -292s292 131 292 292s-129 292 -292 292s-292 -131 -292 -292z" />
    <glyph glyph-name="E.salt" horiz-adv-x="475" 
d="M239 -14c-126 0 -228 101 -228 227c0 75 43 155 124 191l-4 -1c-53 30 -79 82 -79 137c0 95 79 174 178 174s178 -79 178 -174l-76 -8v8c0 56 -46 103 -102 103s-102 -47 -102 -103c0 -52 39 -102 94 -102h58v-72h-48c-83 0 -145 -70 -145 -154c0 -86 65 -156 152 -156
c74 0 132 50 148 118l74 -18c-26 -99 -115 -170 -222 -170z" />
    <glyph glyph-name="uni0410.salt" horiz-adv-x="792" 
d="M24 350c0 201 165 364 368 364c117 0 221 -61 286 -149v135h76v-700h-76v140c-65 -97 -167 -154 -286 -154c-203 0 -368 163 -368 364zM100 350c0 -161 129 -292 292 -292s292 131 292 292s-129 292 -292 292s-292 -131 -292 -292z" />
    <glyph glyph-name="uni0415.salt" horiz-adv-x="475" 
d="M239 -14c-126 0 -228 101 -228 227c0 75 43 155 124 191l-4 -1c-53 30 -79 82 -79 137c0 95 79 174 178 174s178 -79 178 -174l-76 -8v8c0 56 -46 103 -102 103s-102 -47 -102 -103c0 -52 39 -102 94 -102h58v-72h-48c-83 0 -145 -70 -145 -154c0 -86 65 -156 152 -156
c74 0 132 50 148 118l74 -18c-26 -99 -115 -170 -222 -170z" />
    <glyph glyph-name="guilsinglright" unicode="&#x203a;" horiz-adv-x="154" 
d="M80 157h-67l58 197l-54 184h67l54 -184z" />
    <glyph glyph-name="guilsinglleft" unicode="&#x2039;" horiz-adv-x="154" 
d="M141 157h-67l-58 197l54 184h67l-54 -184z" />
    <glyph glyph-name="space" unicode=" " horiz-adv-x="304" 
 />
    <glyph glyph-name="quotedblright" unicode="&#x201d;" horiz-adv-x="241" 
d="M14 490l41 210h69l-41 -210h-69zM113 490l41 210h69l-41 -210h-69z" />
    <glyph glyph-name="quoteleft" unicode="&#x2018;" horiz-adv-x="141" 
d="M87 700l41 -210h-69l-41 210h69z" />
    <glyph glyph-name="quoteright" unicode="&#x2019;" horiz-adv-x="141" 
d="M13 490l41 210h69l-41 -210h-69z" />
    <glyph glyph-name="uni20BD" unicode="&#x20bd;" horiz-adv-x="381" 
d="M291 73h-150v-73h-76v73h-71v72h71v555h46c140 0 255 -113 255 -252c0 -129 -99 -235 -225 -250v-53h150v-72zM290 448c0 89 -64 163 -149 178v-356c85 15 149 89 149 178z" />
    <glyph glyph-name="questiondown" unicode="&#xbf;" horiz-adv-x="444" 
d="M190 548h76v-14c0 -169 -171 -223 -171 -339c0 -76 59 -137 133 -137c70 0 127 55 133 125l75 -8c-10 -106 -100 -189 -208 -189c-115 0 -209 93 -209 209c0 143 171 191 171 339v14zM277 665c0 -29 -22 -51 -49 -51c-29 0 -51 22 -51 51c0 27 22 49 51 49
c27 0 49 -22 49 -49z" />
    <glyph glyph-name="exclamdown" unicode="&#xa1;" horiz-adv-x="168" 
d="M46 0v562h76v-562h-76zM34 665c0 27 22 49 49 49c29 0 51 -22 51 -49c0 -29 -22 -51 -51 -51c-27 0 -49 22 -49 51z" />
    <glyph glyph-name="uni0451" unicode="&#x451;" horiz-adv-x="730" 
d="M214 814c0 32 24 56 54 56c32 0 56 -24 56 -56c0 -30 -24 -54 -56 -54c-30 0 -54 24 -54 54zM406 814c0 32 24 56 54 56c32 0 56 -24 56 -56c0 -30 -24 -54 -56 -54c-30 0 -54 24 -54 54zM410 58c99 0 188 47 240 127l60 -44c-72 -104 -176 -155 -300 -155
c-230 0 -386 163 -386 364s165 364 368 364c139 0 260 -77 323 -190l-539 -372c53 -58 136 -94 234 -94zM100 350c0 -50 12 -96 34 -137l478 329c-53 61 -132 100 -220 100c-163 0 -292 -131 -292 -292z" />
    <glyph glyph-name="uni044F" unicode="&#x44f;" horiz-adv-x="362" 
d="M324 700v-700h-76v208l-106 -208h-83l112 221c-87 40 -148 126 -148 227c0 139 115 252 255 252h46zM99 448c0 -89 64 -165 149 -180v358c-85 -15 -149 -89 -149 -178z" />
    <glyph glyph-name="uni0430" unicode="&#x430;" horiz-adv-x="313" 
d="M98 700h117l80 -700h-74l-9 74h-112l-8 -74h-74zM156 616l-47 -470h95z" />
    <glyph glyph-name="uni0431" unicode="&#x431;" horiz-adv-x="369" 
d="M38 0v700h232v-72h-156v-110c134 -12 240 -123 240 -259c0 -143 -118 -259 -263 -259h-53zM278 259c0 95 -72 181 -164 186v-372c94 5 164 91 164 186z" />
    <glyph glyph-name="uni0432" unicode="&#x432;" horiz-adv-x="343" 
d="M104 0h-66v700h33c103 0 176 -87 176 -175c0 -42 -14 -80 -42 -107c76 -38 125 -111 125 -195c0 -123 -102 -223 -226 -223zM254 223c0 77 -63 145 -140 151v-303c77 6 140 74 140 152zM171 525c0 41 -23 77 -57 95v-190c34 17 57 54 57 95z" />
    <glyph glyph-name="uni0433" unicode="&#x433;" horiz-adv-x="282" 
d="M38 0v700h236v-72h-160v-628h-76z" />
    <glyph glyph-name="uni0434" unicode="&#x434;" horiz-adv-x="349" 
d="M233 700l70 -628h44v-132h-76v60h-193v-60h-76v132h44l70 628h117zM220 145l-46 467l-45 -466l-9 -74h108z" />
    <glyph glyph-name="uni0435" unicode="&#x435;" horiz-adv-x="730" 
d="M410 58c99 0 188 47 240 127l60 -44c-72 -104 -176 -155 -300 -155c-230 0 -386 163 -386 364s165 364 368 364c139 0 260 -77 323 -190l-539 -372c53 -58 136 -94 234 -94zM100 350c0 -50 12 -96 34 -137l478 329c-53 61 -132 100 -220 100c-163 0 -292 -131 -292 -292z
" />
    <glyph glyph-name="uni0436" unicode="&#x436;" horiz-adv-x="468" 
d="M196 92l5 234l-114 -326h-79l122 348l-117 352h78l110 -331l-5 247v84h76v-84l-6 -247l111 331h78l-118 -352l123 -348h-79l-115 326l6 -234v-92h-76v92z" />
    <glyph glyph-name="uni0437" unicode="&#x437;" horiz-adv-x="475" 
d="M14 156l74 18c16 -68 74 -118 148 -118c87 0 152 70 152 156s-65 154 -152 154h-41v72h47c53 0 90 51 90 102c0 56 -46 103 -102 103s-102 -47 -102 -103v-8l-76 8c0 95 79 174 178 174s178 -79 178 -174c0 -53 -24 -103 -73 -134c84 -35 129 -116 129 -193
c0 -126 -102 -227 -228 -227c-107 0 -196 71 -222 170z" />
    <glyph glyph-name="uni0438" unicode="&#x438;" horiz-adv-x="378" 
d="M38 700h76v-83l-10 -523l98 521l17 85h121v-700h-76v91l10 519l-96 -516l-19 -94h-121v700z" />
    <glyph glyph-name="uni0439" unicode="&#x439;" horiz-adv-x="378" 
d="M38 700h76v-83l-10 -523l98 521l17 85h121v-700h-76v91l10 519l-96 -516l-19 -94h-121v700zM90 839h64v-4c0 -16 16 -30 34 -30c19 0 35 14 35 30v4h64v-6c0 -51 -45 -90 -99 -90c-53 0 -98 39 -98 90v6z" />
    <glyph glyph-name="uni043A" unicode="&#x43a;" horiz-adv-x="334" 
d="M38 0v700h76v-84l-6 -247l140 331h78l-151 -356l151 -344h-79l-138 317l5 -224v-93h-76z" />
    <glyph glyph-name="uni043B" unicode="&#x43b;" horiz-adv-x="305" 
d="M211 700l76 -700h-74l-17 145l-44 464l-43 -463l-17 -146h-74l76 700h117z" />
    <glyph glyph-name="uni043C" unicode="&#x43c;" horiz-adv-x="506" 
d="M312 0h-118l-63 620l-32 -528l-7 -92h-74l48 700h131l17 -145l39 -461l39 461l17 145h131l48 -700h-74l-7 92l-32 528z" />
    <glyph glyph-name="uni043D" unicode="&#x43d;" horiz-adv-x="338" 
d="M224 0v203h-110v-203h-76v700h76v-425h110v425h76v-700h-76z" />
    <glyph glyph-name="uni043E" unicode="&#x43e;" horiz-adv-x="784" 
d="M24 350c0 201 165 364 368 364s368 -163 368 -364s-165 -364 -368 -364s-368 163 -368 364zM100 350c0 -161 129 -292 292 -292s292 131 292 292s-129 292 -292 292s-292 -131 -292 -292z" />
    <glyph glyph-name="uni043F" unicode="&#x43f;" horiz-adv-x="334" 
d="M220 0v628h-106v-628h-76v700h258v-700h-76z" />
    <glyph glyph-name="uni0440" unicode="&#x440;" horiz-adv-x="383" 
d="M38 0v700h46c157 0 284 -126 284 -281c0 -145 -111 -265 -254 -280v-139h-76zM292 419c0 105 -72 198 -178 207v-414c104 6 178 102 178 207z" />
    <glyph glyph-name="uni0441" unicode="&#x441;" 
d="M628 178l60 -44c-67 -90 -174 -148 -296 -148c-203 0 -368 163 -368 364s165 364 368 364c118 0 223 -56 291 -142l-58 -45c-53 70 -137 115 -233 115c-163 0 -292 -131 -292 -292s129 -292 292 -292c98 0 183 47 236 120z" />
    <glyph glyph-name="uni0442" unicode="&#x442;" horiz-adv-x="336" 
d="M18 628v72h300v-72h-112v-628h-76v628h-112z" />
    <glyph glyph-name="uni0443" unicode="&#x443;" horiz-adv-x="315" 
d="M161 216l42 344l18 140h74l-90 -700h-74l16 126h-43l-84 574h74l21 -140z" />
    <glyph glyph-name="uni0444" unicode="&#x444;" horiz-adv-x="676" 
d="M300 -14v67c-156 11 -279 140 -279 297c0 156 123 286 279 297v53h76v-53c156 -11 279 -141 279 -297c0 -157 -123 -286 -279 -297v-67h-76zM579 350c0 117 -88 214 -203 225v-450c115 6 203 107 203 225zM97 350c0 -118 87 -219 203 -225v450
c-116 -11 -203 -108 -203 -225z" />
    <glyph glyph-name="uni0445" unicode="&#x445;" horiz-adv-x="725" 
d="M8 700h100l73 -84l181 -214l182 214l73 84h100l-305 -350l305 -350h-99l-81 92l-175 207l-175 -207l-80 -92h-99l304 350z" />
    <glyph glyph-name="uni0446" unicode="&#x446;" horiz-adv-x="349" 
d="M38 0v700h76v-628h104v628h76v-628h44v-132h-76v60h-224z" />
    <glyph glyph-name="uni0447" unicode="&#x447;" horiz-adv-x="324" 
d="M210 0v160c-12 -12 -32 -16 -53 -16c-70 0 -127 57 -127 127v429h76v-433c0 -28 23 -51 51 -51c30 0 53 23 53 51v433h76v-700h-76z" />
    <glyph glyph-name="uni0448" unicode="&#x448;" horiz-adv-x="492" 
d="M454 0h-416v700h76v-628h94v628h76v-628h94v628h76v-700z" />
    <glyph glyph-name="uni0449" unicode="&#x449;" horiz-adv-x="509" 
d="M422 0h-384v700h76v-628h94v628h76v-628h94v628h76v-628h44v-132h-76v60z" />
    <glyph glyph-name="uni044A" unicode="&#x44a;" horiz-adv-x="470" 
d="M6 628v72h188v-139c146 -12 261 -133 261 -280c0 -155 -127 -281 -284 -281h-53v628h-112zM379 281c0 107 -73 197 -185 208v-416c107 4 185 100 185 208z" />
    <glyph glyph-name="uni044B" unicode="&#x44b;" horiz-adv-x="527" 
d="M114 700v-139c146 -12 261 -133 261 -280c0 -155 -127 -281 -284 -281h-53v700h76zM413 0v700h76v-700h-76zM299 281c0 107 -73 197 -185 208v-416c107 4 185 100 185 208z" />
    <glyph glyph-name="uni044C" unicode="&#x44c;" horiz-adv-x="390" 
d="M114 700v-139c146 -12 261 -133 261 -280c0 -155 -127 -281 -284 -281h-53v700h76zM299 281c0 107 -73 197 -185 208v-416c107 4 185 100 185 208z" />
    <glyph glyph-name="uni044D" unicode="&#x44d;" horiz-adv-x="701" 
d="M242 318v72h356c-18 142 -132 252 -281 252c-96 0 -180 -45 -233 -115l-58 45c68 86 173 142 291 142c211 0 360 -163 360 -364c0 -212 -157 -364 -360 -364c-122 0 -229 58 -296 148l60 44c53 -73 138 -120 236 -120c152 0 268 105 282 260h-357z" />
    <glyph glyph-name="uni044E" unicode="&#x44e;" horiz-adv-x="906" 
d="M38 0v700h76v-310h34c20 182 176 324 366 324c203 0 368 -163 368 -364s-165 -364 -368 -364c-192 0 -351 146 -367 332h-33v-318h-76zM222 350c0 -161 129 -292 292 -292s292 131 292 292s-129 292 -292 292s-292 -131 -292 -292z" />
    <glyph glyph-name="a" unicode="a" horiz-adv-x="313" 
d="M98 700h117l80 -700h-74l-9 74h-112l-8 -74h-74zM204 146l-48 470l-47 -470h95z" />
    <glyph glyph-name="b" unicode="b" horiz-adv-x="343" 
d="M104 0h-66v700h33c103 0 176 -87 176 -175c0 -42 -14 -80 -42 -107c76 -38 125 -111 125 -195c0 -123 -102 -223 -226 -223zM254 223c0 77 -63 145 -140 151v-303c77 6 140 74 140 152zM171 525c0 41 -23 77 -57 95v-190c34 17 57 54 57 95z" />
    <glyph glyph-name="c" unicode="c" 
d="M628 178l60 -44c-67 -90 -174 -148 -296 -148c-203 0 -368 163 -368 364s165 364 368 364c118 0 223 -56 291 -142l-58 -45c-53 70 -137 115 -233 115c-163 0 -292 -131 -292 -292s129 -292 292 -292c98 0 183 47 236 120z" />
    <glyph glyph-name="d" unicode="d" horiz-adv-x="452" 
d="M74 0h-36v700h36c195 0 354 -157 354 -350s-159 -350 -354 -350zM352 350c0 140 -97 260 -238 275v-551c136 10 238 135 238 276z" />
    <glyph glyph-name="e" unicode="e" horiz-adv-x="730" 
d="M410 58c99 0 182 39 240 127l60 -44c-72 -104 -176 -155 -300 -155c-230 0 -386 163 -386 364s165 364 368 364c139 0 260 -77 323 -190l-539 -372c53 -58 136 -94 234 -94zM100 350c0 -50 12 -96 34 -137l478 329c-53 61 -132 100 -220 100c-163 0 -292 -131 -292 -292z
" />
    <glyph glyph-name="f" unicode="f" horiz-adv-x="302" 
d="M38 0v700h251v-72h-175v-353h115v-72h-115v-203h-76z" />
    <glyph glyph-name="g" unicode="g" horiz-adv-x="745" 
d="M730 275c-6 -196 -178 -289 -326 -289c-213 0 -380 153 -380 364c0 201 165 364 368 364c118 0 223 -56 291 -142l-58 -45c-53 70 -137 115 -233 115c-163 0 -292 -131 -292 -292s123 -292 304 -292c135 0 215 73 238 145h-141v72h229z" />
    <glyph glyph-name="h" unicode="h" horiz-adv-x="338" 
d="M114 203v-203h-76v700h76v-425h110v425h76v-700h-76v203h-110z" />
    <glyph glyph-name="i" unicode="i" horiz-adv-x="156" 
d="M40 0v700h76v-700h-76z" />
    <glyph glyph-name="j" unicode="j" horiz-adv-x="258" 
d="M-13 50l65 34c9 -15 26 -26 44 -26c28 0 51 25 51 51v591h76v-584c0 -72 -57 -130 -127 -130c-46 0 -87 26 -109 64z" />
    <glyph glyph-name="k" unicode="k" horiz-adv-x="334" 
d="M38 0v700h76v-84l-6 -247l140 331h78l-151 -356l151 -344h-79l-138 317l5 -224v-93h-76z" />
    <glyph glyph-name="l" unicode="l" horiz-adv-x="286" 
d="M38 0v700h76v-628h154v-72h-230z" />
    <glyph glyph-name="m" unicode="m" horiz-adv-x="506" 
d="M312 0h-118l-63 620l-32 -528l-7 -92h-74l48 700h131l17 -145l39 -461l39 461l17 145h131l48 -700h-74l-7 92l-32 528z" />
    <glyph glyph-name="n" unicode="n" horiz-adv-x="378" 
d="M200 94l-96 516l10 -519v-91h-76v700h121l17 -85l97 -521l-9 523v83h76v-700h-121z" />
    <glyph glyph-name="o" unicode="o" horiz-adv-x="784" 
d="M24 350c0 201 165 364 368 364s368 -163 368 -364s-165 -364 -368 -364s-368 163 -368 364zM100 350c0 -161 129 -292 292 -292s292 131 292 292s-129 292 -292 292s-292 -131 -292 -292z" />
    <glyph glyph-name="p" unicode="p" horiz-adv-x="383" 
d="M38 0v700h46c157 0 284 -126 284 -281c0 -145 -111 -265 -254 -280v-139h-76zM292 419c0 105 -72 198 -178 207v-414c104 6 178 102 178 207z" />
    <glyph glyph-name="q" unicode="q" horiz-adv-x="784" 
d="M24 350c0 201 165 364 368 364s368 -163 368 -364c0 -91 -34 -175 -90 -239l67 -78l-54 -47l-66 76c-62 -48 -140 -76 -225 -76c-203 0 -368 163 -368 364zM517 180l55 47l49 -59c40 50 63 113 63 182c0 161 -129 292 -292 292s-292 -131 -292 -292s129 -292 292 -292
c67 0 129 22 178 60z" />
    <glyph glyph-name="r" unicode="r" horiz-adv-x="362" 
d="M38 0v700h46c140 0 255 -113 255 -252c0 -100 -60 -185 -146 -226l145 -222h-88l-136 209v-209h-76zM263 448c0 89 -64 163 -149 178v-358c85 15 149 91 149 180z" />
    <glyph glyph-name="s" unicode="s" horiz-adv-x="450" 
d="M386 551l-76 -8c0 53 -36 99 -93 99c-55 0 -91 -44 -91 -94c0 -71 63 -101 125 -131c107 -52 185 -104 185 -222c0 -116 -94 -209 -209 -209c-108 0 -198 83 -208 189l75 8c6 -70 63 -125 133 -125c74 0 133 61 133 137c0 86 -72 122 -144 158c-93 47 -166 83 -166 195
c0 92 75 166 167 166c95 -1 169 -73 169 -163z" />
    <glyph glyph-name="t" unicode="t" horiz-adv-x="336" 
d="M18 628v72h300v-72h-112v-628h-76v628h-112z" />
    <glyph glyph-name="u" unicode="u" horiz-adv-x="326" 
d="M214 109v591h76v-584c0 -72 -57 -130 -127 -130s-127 58 -127 130v584h76v-591c0 -26 23 -51 51 -51s51 25 51 51z" />
    <glyph glyph-name="v" unicode="v" horiz-adv-x="308" 
d="M111 554l43 -467l43 468l17 145h74l-75 -700h-118l-75 700h74z" />
    <glyph glyph-name="w" unicode="w" horiz-adv-x="546" 
d="M446 0h-118l-10 94l-45 516l-45 -517l-10 -93h-118l-80 700h74l17 -146l47 -467l39 468l17 145h118l17 -146l39 -467l47 468l17 145h74z" />
    <glyph glyph-name="x" unicode="x" horiz-adv-x="725" 
d="M8 700h100l73 -84l181 -214l182 214l73 84h100l-305 -350l305 -350h-99l-81 92l-175 207l-175 -207l-80 -92h-99l304 350z" />
    <glyph glyph-name="y" unicode="y" horiz-adv-x="272" 
d="M101 0v108l-94 592h74l16 -90l41 -345l38 345l15 90h74l-88 -592v-108h-76z" />
    <glyph glyph-name="z" unicode="z" horiz-adv-x="301" 
d="M19 628v72h263v-58l-181 -570h181v-72h-263v58l180 570h-180z" />
    <glyph glyph-name="oe" unicode="&#x153;" horiz-adv-x="1390" 
d="M100 350c0 -161 129 -292 292 -292s292 131 292 292s-129 292 -292 292s-292 -131 -292 -292zM760 350c0 -50 12 -96 34 -137l478 329c-53 61 -132 100 -220 100c-163 0 -292 -131 -292 -292zM1070 -14c-134 0 -276 62 -348 218c-59 -134 -186 -218 -330 -218
c-203 0 -368 163 -368 364s165 364 368 364c144 0 273 -84 330 -218c62 134 185 218 330 218c139 0 260 -77 323 -190l-539 -372c53 -58 136 -94 234 -94c99 0 188 47 240 127l60 -44c-72 -104 -176 -155 -300 -155z" />
    <glyph glyph-name="ae" unicode="&#xe6;" horiz-adv-x="891" 
d="M571 -14c-114 0 -222 45 -294 124l-160 -110h-99l80 700h117l21 -185c62 130 182 199 317 199c139 0 260 -77 323 -190l-539 -372c53 -58 136 -94 234 -94c99 0 188 47 240 127l60 -44c-72 -104 -176 -155 -300 -155zM295 213l478 329c-53 61 -132 100 -220 100
c-163 0 -292 -131 -292 -292c0 -50 12 -96 34 -137zM109 146l-9 -74l133 97c-26 44 -39 70 -47 149l-30 298z" />
    <glyph glyph-name="uni045E" unicode="&#x45e;" horiz-adv-x="315" 
d="M59 839h64v-4c0 -16 16 -30 34 -30c19 0 35 14 35 30v4h64v-6c0 -51 -45 -90 -99 -90c-53 0 -98 39 -98 90v6zM161 216l42 344l18 140h74l-90 -700h-74l16 126h-43l-84 574h74l21 -140z" />
    <glyph glyph-name="uni0457" unicode="&#x457;" horiz-adv-x="196" 
d="M60 0v700h76v-700h-76zM-53 812c0 32 24 56 54 56c32 0 56 -24 56 -56c0 -30 -24 -54 -56 -54c-30 0 -54 24 -54 54zM139 812c0 32 24 56 54 56c32 0 56 -24 56 -56c0 -30 -24 -54 -56 -54c-30 0 -54 24 -54 54z" />
    <glyph glyph-name="uni042B.salt" horiz-adv-x="535" 
d="M421 0v638l-203 -111c98 -47 157 -140 157 -246c0 -155 -127 -281 -284 -281h-53v700h76v-155l268 155h115v-700h-76zM299 281c0 107 -73 197 -185 208v-416c107 4 185 100 185 208z" />
    <glyph glyph-name="uni0454" unicode="&#x454;" 
d="M628 178l60 -44c-67 -90 -174 -148 -296 -148c-203 0 -368 163 -368 364s165 364 368 364c118 0 223 -56 291 -142l-58 -45c-53 70 -137 115 -233 115c-150 0 -270 -110 -290 -252h364v-72h-365c16 -146 139 -260 291 -260c98 0 183 47 236 120z" />
    <glyph glyph-name="uni0491" unicode="&#x491;" horiz-adv-x="282" 
d="M114 628v-628h-76v700h160v60h76v-132h-160z" />
    <glyph glyph-name="multiply" unicode="&#xd7;" horiz-adv-x="522" 
d="M496 534l-184 -184l184 -184l-51 -51l-184 184l-184 -184l-51 51l184 184l-184 184l51 51l184 -184l184 184z" />
    <glyph glyph-name="minus" unicode="&#x2212;" horiz-adv-x="570" 
d="M538 320h-506v68h506v-68z" />
    <glyph glyph-name="plusminus" unicode="&#xb1;" horiz-adv-x="564" 
d="M552 384h-234v-256h-72v256h-234v68h234v248h72v-248h234v-68zM552 0h-540v68h540v-68z" />
    <glyph glyph-name="greaterequal" unicode="&#x2265;" horiz-adv-x="315" 
d="M23 623l288 -195l-288 -195v87l172 108l-172 108v87zM311 357v-87l-288 -195v87z" />
    <glyph glyph-name="uni0456" unicode="&#x456;" horiz-adv-x="156" 
d="M40 0v700h76v-700h-76z" />
    <glyph glyph-name="lessequal" unicode="&#x2264;" horiz-adv-x="315" 
d="M4 428l288 195v-87l-172 -108l172 -108v-87zM4 270v87l288 -195v-87z" />
    <glyph glyph-name="trademark" unicode="&#x2122;" horiz-adv-x="608" 
d="M456 299h-103l-36 358l-18 -305l-4 -53h-63l28 401h112l10 -83l22 -265l23 265l10 83h112l28 -401h-63l-4 53l-19 305zM8 634v66h214v-66h-74v-335h-66v335h-74z" />
    <glyph glyph-name="uni044B.salt" horiz-adv-x="535" 
d="M421 0v638l-203 -111c98 -47 157 -140 157 -246c0 -155 -127 -281 -284 -281h-53v700h76v-155l268 155h115v-700h-76zM299 281c0 107 -73 197 -185 208v-416c107 4 185 100 185 208z" />
    <glyph glyph-name="quotedblleft" unicode="&#x201c;" horiz-adv-x="240" 
d="M186 700l41 -210h-69l-41 210h69zM87 700l41 -210h-69l-41 210h69z" />
    <glyph glyph-name="exclam" unicode="!" horiz-adv-x="168" 
d="M46 138v562h76v-562h-76zM34 35c0 29 22 51 49 51c29 0 51 -22 51 -51c0 -27 -22 -49 -51 -49c-27 0 -49 22 -49 49z" />
    <glyph glyph-name="uni0415.salt_uni0417" horiz-adv-x="855" 
d="M610 643c-52 0 -92 -36 -92 -96v-4l-76 7c2 96 64 164 168 164c99 0 178 -79 178 -174c0 -53 -24 -103 -73 -134c84 -35 129 -116 129 -193c0 -126 -102 -227 -228 -227c-79 0 -152 38 -189 113c-37 -75 -110 -113 -188 -113c-126 0 -228 101 -228 227
c0 75 43 155 124 191l-4 -1c-53 30 -79 82 -79 137c0 95 79 174 178 174c104 0 166 -68 168 -164l-76 -7v4c0 60 -40 96 -92 96c-56 0 -102 -47 -102 -103c0 -52 39 -102 94 -102h58v-72h-48c-83 -4 -145 -70 -145 -154c0 -86 65 -156 152 -156c79 0 137 55 151 130h75
c14 -75 72 -130 151 -130c87 0 152 70 152 156c0 84 -62 150 -146 154h-47v72h43c55 0 94 50 94 102c0 56 -46 103 -102 103z" />
    <glyph glyph-name="uni0435.salt" horiz-adv-x="475" 
d="M239 -14c-126 0 -228 101 -228 227c0 75 43 155 124 191l-4 -1c-53 30 -79 82 -79 137c0 95 79 174 178 174s178 -79 178 -174l-76 -8v8c0 56 -46 103 -102 103s-102 -47 -102 -103c0 -52 39 -102 94 -102h58v-72h-48c-83 0 -145 -70 -145 -154c0 -86 65 -156 152 -156
c74 0 132 50 148 118l74 -18c-26 -99 -115 -170 -222 -170z" />
    <glyph glyph-name="uni0435.salt_uni0437" horiz-adv-x="855" 
d="M610 643c-52 0 -92 -36 -92 -96v-4l-76 7c2 96 64 164 168 164c99 0 178 -79 178 -174c0 -53 -24 -103 -73 -134c84 -35 129 -116 129 -193c0 -126 -102 -227 -228 -227c-79 0 -152 38 -189 113c-37 -75 -110 -113 -188 -113c-126 0 -228 101 -228 227
c0 75 43 155 124 191l-4 -1c-53 30 -79 82 -79 137c0 95 79 174 178 174c104 0 166 -68 168 -164l-76 -7v4c0 60 -40 96 -92 96c-56 0 -102 -47 -102 -103c0 -52 39 -102 94 -102h58v-72h-48c-83 -4 -145 -70 -145 -154c0 -86 65 -156 152 -156c79 0 137 55 151 130h75
c14 -75 72 -130 151 -130c87 0 152 70 152 156c0 84 -62 150 -146 154h-47v72h43c55 0 94 50 94 102c0 56 -46 103 -102 103z" />
    <glyph glyph-name="e.salt" horiz-adv-x="475" 
d="M239 -14c-126 0 -228 101 -228 227c0 75 43 155 124 191l-4 -1c-53 30 -79 82 -79 137c0 95 79 174 178 174s178 -79 178 -174l-76 -8v8c0 56 -46 103 -102 103s-102 -47 -102 -103c0 -52 39 -102 94 -102h58v-72h-48c-83 0 -145 -70 -145 -154c0 -86 65 -156 152 -156
c74 0 132 50 148 118l74 -18c-26 -99 -115 -170 -222 -170z" />
    <glyph glyph-name="a.salt" horiz-adv-x="792" 
d="M24 350c0 201 165 364 368 364c117 0 221 -61 286 -149v135h76v-700h-76v140c-65 -97 -167 -154 -286 -154c-203 0 -368 163 -368 364zM100 350c0 -161 129 -292 292 -292s292 131 292 292s-129 292 -292 292s-292 -131 -292 -292z" />
    <glyph glyph-name="uni0430.salt" horiz-adv-x="792" 
d="M24 350c0 201 165 364 368 364c117 0 221 -61 286 -149v135h76v-700h-76v140c-65 -97 -167 -154 -286 -154c-203 0 -368 163 -368 364zM100 350c0 -161 129 -292 292 -292s292 131 292 292s-129 292 -292 292s-292 -131 -292 -292z" />
    <glyph glyph-name="NULL" horiz-adv-x="0" 
 />
    <glyph glyph-name="NULL" horiz-adv-x="0" 
 />
    <glyph glyph-name="CR" unicode="&#xd;" horiz-adv-x="304" 
 />
    </font>
</defs>
</svg>
