<svg width="33" height="31" viewBox="0 0 33 31" fill="none" xmlns="http://www.w3.org/2000/svg">
<path fill-rule="evenodd" clip-rule="evenodd" d="M6.94737 8.82826L15.886 0.24425C16.225 -0.0814168 16.775 -0.0814168 17.114 0.24425C17.2768 0.400721 17.3684 0.612777 17.3684 0.833994V30.166C17.3684 30.6266 16.9796 31 16.5 31C16.2698 31 16.0488 30.912 15.886 30.7557L6.94737 22.1718H1.73684C0.777678 22.1718 0 21.4249 0 20.5038V10.4962C0 9.57499 0.777678 8.82826 1.73684 8.82826H6.94737ZM3.47368 18.8359V12.1641H8.68421L13.8947 6.87416V23.5535L8.68421 18.8359H3.47368Z" fill="white" fill-opacity="0.95"/>
<path d="M20.8421 29.8533C27.8033 28.3364 33 22.358 33 15.2138C33 8.06973 27.8033 2.09126 20.8421 0.574397V4.02175C25.8641 5.45706 29.5263 9.92478 29.5263 15.2138C29.5263 20.5029 25.8641 24.9706 20.8421 26.4059V29.8533Z" fill="white" fill-opacity="0.95"/>
<path d="M20.8421 22.8596C23.9091 21.5728 26.0526 18.6336 26.0526 15.2138C26.0526 11.7941 23.9091 8.85494 20.8421 7.56805V11.4842C21.9081 12.4004 22.5789 13.7319 22.5789 15.2138C22.5789 16.6958 21.9081 18.0273 20.8421 18.9435V22.8596Z" fill="white" fill-opacity="0.95"/>
</svg>
